<?xml version="1.0" encoding="utf-8"?>
<!-- Generator: Adobe Illustrator 25.0.1, SVG Export Plug-In . SVG Version: 6.00 Build 0)  -->
<svg version="1.1" id="Layer_1" xmlns="http://www.w3.org/2000/svg" xmlns:xlink="http://www.w3.org/1999/xlink" x="0px" y="0px"
	 viewBox="0 0 5102.3623 2834.6455" enable-background="new 0 0 5102.3623 2834.6455" xml:space="preserve">
<circle fill="none" stroke="#000000" stroke-miterlimit="10" cx="2551.1812" cy="1417.3229" r="283.4646"/>
<path fill="none" stroke="#000000" stroke-miterlimit="10" d="M2401.7107,1950.2701c0-23.8022,3.8948-37.6525,10.8198-47.6045
	c11.6833-16.8772,31.1582-23.8022,52.3645-23.8022c19.4749,0,38.5156,6.4926,49.3357,22.5049
	c10.8184,16.0123,10.8184,36.7844,10.8184,55.3944v168.3452c0,12.5498-1.2971,28.9946-9.9536,41.98
	c-7.356,11.2524-23.8022,24.667-52.3643,24.667c-61.0205,0-61.0205-50.2021-61.0205-69.2446v-162.3033l-5.1216,3.3158v-10.8158
	l5.1216,3.158V1950.2701"/>
<path fill="none" stroke="#000000" stroke-miterlimit="10" d="M2504.7095,1968.4476c0-23.3698-0.4324-47.172-12.5498-59.725
	c-6.925-6.9219-17.7434-10.8169-28.5635-10.8169c-11.6851,0-22.071,3.895-28.9946,10.8169
	c-12.5513,12.1205-12.5513,31.1598-12.5513,37.22v168.3455c0,28.9976,3.4624,41.5474,16.4463,51.0669
	c6.9236,4.7629,15.5784,7.3574,25.0996,7.3574c7.7898,0,14.7148-1.7295,20.3411-5.1921
	c18.6086-10.3877,20.7722-29.8625,20.7722-50.2021V1968.4476z"/>
<polygon fill="none" stroke="#000000" stroke-miterlimit="10" points="2675.9817,1882.3259 2699.7839,1882.3259 
	2634.8699,2003.9348 2700.6519,2187.8599 2678.147,2187.8599 2621.8877,2029.4668 2599.3826,2071.8789 2599.3826,2187.8599 
	2578.6106,2187.8599 2578.6106,1882.3259 2599.8149,1882.3259 2599.8149,2032.0645 "/>
<path fill="none" stroke="#000000" stroke-miterlimit="10" d="M2874.8738,888.8644c16.4922-35.4938,1.0884-77.6368-34.4053-94.1292
	c-35.4939-16.4923-77.637-1.0885-94.1292,34.4053c-14.3447,30.8719-4.5559,66.7706,21.5911,86.4494l-41.6216,124.8329
	l68.5686-112.312C2826.7793,935.4048,2860.5291,919.7363,2874.8738,888.8644z"/>
<circle fill="none" stroke="#000000" stroke-miterlimit="10" cx="2065.4265" cy="1394.6458" r="5.6693"/>
<circle fill="none" stroke="#000000" stroke-miterlimit="10" cx="2110.7808" cy="1394.6458" r="5.6693"/>
<circle fill="none" stroke="#000000" stroke-miterlimit="10" cx="2065.4265" cy="1440.0001" r="5.6693"/>
<circle fill="none" stroke="#000000" stroke-miterlimit="10" cx="2110.7808" cy="1440.0001" r="5.6693"/>
<circle fill="none" stroke="#000000" stroke-miterlimit="10" cx="2156.1353" cy="1394.6458" r="5.6693"/>
<circle fill="none" stroke="#000000" stroke-miterlimit="10" cx="2156.1353" cy="1440.0001" r="5.6693"/>
<line fill="none" stroke="#000000" stroke-miterlimit="10" x1="2955.7512" y1="1271.6832" x2="2955.7512" y2="1501.0032"/>
<line fill="none" stroke="#000000" stroke-miterlimit="10" x1="3363.4312" y1="1271.6832" x2="3363.4312" y2="1400.582"/>
<line fill="none" stroke="#000000" stroke-miterlimit="10" x1="3032.1912" y1="1271.6832" x2="3032.1912" y2="1617.9114"/>
<line fill="none" stroke="#000000" stroke-miterlimit="10" x1="3140.1064" y1="1190.7468" x2="3140.1064" y2="1560.9562"/>
<line fill="none" stroke="#000000" stroke-miterlimit="10" x1="3258.5137" y1="1271.6832" x2="3258.5137" y2="1617.9114"/>
<circle fill="none" stroke="#000000" stroke-miterlimit="10" cx="2485.8784" cy="1947.4175" r="13.5789"/>
</svg>
