<?xml version="1.0" encoding="utf-8"?>
<!-- Generator: Adobe Illustrator 25.2.0, SVG Export Plug-In . SVG Version: 6.00 Build 0)  -->
<svg version="1.1" id="Layer_1" xmlns="http://www.w3.org/2000/svg" xmlns:xlink="http://www.w3.org/1999/xlink" x="0px" y="0px"
	 viewBox="0 0 5102.4 2834.6" style="enable-background:new 0 0 5102.4 2834.6;" xml:space="preserve">
<style type="text/css">
	.st0{fill:none;stroke:#000000;stroke-miterlimit:10;}
	.st1{fill:none;stroke:#000000;stroke-width:0.8982;stroke-miterlimit:10;}
	.st2{fill:none;stroke:#000000;stroke-width:1.4671;stroke-miterlimit:10;}
</style>
<polygon class="st0" points="1962.8,1364.6 1879.9,1078.3 2033.1,1105.5 1948.1,1218.9 2085.9,1257.1 "/>
<polyline class="st0" points="2117,1336.1 2100.2,1014.8 2181.8,1008.3 2244,1384 "/>
<line class="st0" x1="2207.1" y1="1161.3" x2="2108.2" y2="1167.6"/>
<polyline class="st1" points="2373.4,1040.2 2265.5,1046.3 2268.7,1124.2 2367.3,1113.9 2379.5,1228.5 2271.5,1235.8 "/>
<line class="st0" x1="2450.1" y1="1288.6" x2="2474.7" y2="996.5"/>
<polygon class="st0" points="2703.4,1349.3 2527.8,1163.2 2748.7,1068.4 2764.4,1105.2 2596.2,1177.4 2732.5,1321.9 "/>
<line class="st0" x1="2806.3" y1="1133.9" x2="2863" y2="1133.9"/>
<line class="st0" x1="2834.7" y1="1105.5" x2="2834.7" y2="1162.2"/>
<circle class="st2" cx="2834.6" cy="1133.8" r="16.6"/>
<line class="st0" x1="1955.9" y1="850.4" x2="2012.6" y2="850.4"/>
<line class="st0" x1="1984.3" y1="822" x2="1984.3" y2="878.7"/>
<circle class="st2" cx="1984.3" cy="850.3" r="16.6"/>
<rect y="2827.2" class="st0" width="7.4" height="7.4"/>
<circle class="st0" cx="2267.7" cy="566.9" r="28.3"/>
<circle class="st0" cx="2381.1" cy="566.9" r="28.3"/>
<circle class="st0" cx="2494.5" cy="566.9" r="28.3"/>
<circle class="st0" cx="2324.4" cy="623.6" r="28.3"/>
<circle class="st0" cx="2437.8" cy="623.6" r="28.3"/>
<circle class="st0" cx="2267.7" cy="680.3" r="28.3"/>
<circle class="st0" cx="2381.1" cy="680.3" r="28.3"/>
<circle class="st0" cx="2494.5" cy="680.3" r="28.3"/>
</svg>
