<?xml version="1.0" encoding="utf-8"?>
<!-- Generator: Adobe Illustrator 25.0.1, SVG Export Plug-In . SVG Version: 6.00 Build 0)  -->
<svg version="1.1" id="Layer_1" xmlns="http://www.w3.org/2000/svg" xmlns:xlink="http://www.w3.org/1999/xlink" x="0px" y="0px"
	 viewBox="0 0 5102.3623 2834.6455" enable-background="new 0 0 5102.3623 2834.6455" xml:space="preserve">
<g>
	<g>
		<polygon fill="#00AEEF" points="1187.1832,1442.1932 1408.3328,1486.7612 1392.5171,1433.2563 1537.5686,1433.3398 
			1318.2598,1365.5254 1336.8364,1434.8125 		"/>
		<g>
			<path d="M1627.0381,1474.4459l18.9194-69.1245c0.7751-2.8185,1.3387-5.0381,1.6912-6.6588
				c0.7046-3.0299,1.0569-5.1438,1.0569-6.3417c0-2.6072-0.8103-4.2278-2.4309-4.8619c-1.6207-0.6342-4.7563-1.0217-9.4069-1.1626
				v-5.7075c8.9664-0.5637,15.9423-1.1979,20.9099-1.9026c4.9854-0.7046,12.4016-2.0082,22.2841-3.9106l-12.8243,40.0583
				l0.5637,0.317c-0.3523,0.3524,1.7792-2.8713,6.377-9.671c4.6154-6.7997,9.0016-12.3135,13.1942-16.5413
				c4.1045-4.2982,8.4027-7.7334,12.9124-10.3053c4.4921-2.5719,9.2307-3.8578,14.1984-3.8578
				c4.5978,0,8.5261,1.3035,11.7498,3.9106c3.2238,2.6072,4.8268,6.8702,4.8268,12.7891c0,5.4962-3.1709,17.6158-9.5126,36.3591
				c-6.4298,18.6727-9.6359,28.6785-9.6359,30.0173c0,1.2683,0.3876,2.2372,1.1627,2.9066c0.775,0.6694,1.5502,1.004,2.3252,1.004
				c1.9026,0,4.7211-2.3958,8.4557-7.1873c1.9729-2.5366,4.1221-5.6722,6.4474-9.4067l4.7562,3.0651
				c-5.2848,8.667-9.7767,14.9031-13.4585,18.708c-6.3945,6.5531-13.1766,9.8297-20.3463,9.8297
				c-3.8226,0-7.2577-1.1274-10.3052-3.3823c-3.0476-2.2548-4.5625-5.8132-4.5625-10.6752c0-3.1003,0.7399-7.61,2.2196-13.5289
				s3.1708-12.014,5.0734-18.2853l9.9-32.3427c0.2114-0.775,0.3876-1.4445,0.5284-2.0082c0.141-0.5637,0.2114-1.1273,0.2114-1.691
				c0-1.6207-0.5461-2.7482-1.6383-3.3823s-2.2548-0.9512-3.5231-0.9512c-4.4041,0-9.3011,3.4351-14.6917,10.3052
				c-5.3728,6.8702-9.7944,13.7228-13.2119,20.5577c-3.7169,7.3986-6.7997,14.903-9.2834,22.5129
				c-2.4663,7.6101-5.4257,17.792-8.8608,30.5459H1627.0381z"/>
			<path d="M1767.1896,1445.4855c4.4392,0,7.892,1.5679,10.3582,4.7035s3.2413,6.8877,2.3252,11.2565
				c-0.9865,4.4392-3.3822,8.2266-7.1871,11.3622c-3.8051,3.1356-7.9271,4.7035-12.3663,4.7035
				c-4.3688,0-7.7863-1.5679-10.2524-4.7035s-3.2061-6.923-2.2196-11.3622c0.916-4.4392,3.2766-8.209,7.0815-11.3093
				C1758.734,1447.0356,1762.8209,1445.4855,1767.1896,1445.4855z"/>
		</g>
	</g>
	<g>
		<g>
			<line fill="none" x1="2923.8125" y1="1212.9807" x2="2923.8125" y2="1621.6648"/>
			<line fill="none" x1="3144.3254" y1="1212.9807" x2="3144.3254" y2="1621.6648"/>
			<polygon fill="none" points="3408.9412,1339.4082 3306.0352,1474.6561 3497.1462,1512.8784 			"/>
			<polygon fill="none" points="3783.9785,1266.1395 3814.9509,1361.4624 3915.1792,1361.4624 3834.0928,1420.3751 
				3865.0649,1515.698 3783.9785,1456.7852 3702.8921,1515.698 3733.8645,1420.3751 3652.7781,1361.4624 3753.0063,1361.4624 			"/>
			<line fill="none" x1="2500.4275" y1="1417.3228" x2="2723.8809" y2="1417.3228"/>
			<line fill="none" x1="2612.1543" y1="1305.5962" x2="2612.1543" y2="1529.0494"/>
		</g>
		<polyline points="2395.5181,1529.0494 2324.6414,1305.5962 2018.5831,1529.0494 		"/>
	</g>
</g>
</svg>
