<?xml version="1.0" encoding="utf-8"?>
<!-- Generator: Adobe Illustrator 25.2.0, SVG Export Plug-In . SVG Version: 6.00 Build 0)  -->
<svg version="1.1" id="Layer_1" xmlns="http://www.w3.org/2000/svg" xmlns:xlink="http://www.w3.org/1999/xlink" x="0px" y="0px"
	 viewBox="0 0 5102.4 2834.6" style="enable-background:new 0 0 5102.4 2834.6;" xml:space="preserve">
<style type="text/css">
	.st0{fill:none;stroke:#000000;stroke-miterlimit:10;}
</style>
<line class="st0" x1="226.8" y1="2551.2" x2="340.2" y2="2551.2"/>
<line class="st0" x1="283.5" y1="2494.5" x2="283.5" y2="2607.9"/>
<path class="st0" d="M2510.3,1434.5h46.3c6.4,0,11.6,5.2,11.6,11.6v11.6c0,6.4-5.2,11.6-11.6,11.6h-46.3c-6.4,0-11.6,5.2-11.6,11.6
	v11.6c0,6.4,5.2,11.6,11.6,11.6h81.1c6.4,0,11.6-5.2,11.6-11.6v-81.1c0-6.4-5.2-11.6-11.6-11.6H2545c-6.4,0-11.6-5.2-11.6-11.6
	v-11.6c0-6.4,5.2-11.6,11.6-11.6h46.3c6.4,0,11.6-5.2,11.6-11.6v-11.6c0-6.4-5.2-11.6-11.6-11.6h-81.1c-6.4,0-11.6,5.2-11.6,11.6
	v81.1C2498.7,1429.3,2503.9,1434.5,2510.3,1434.5z"/>
<g>
	<circle class="st0" cx="2677.9" cy="1255.2" r="74.9"/>
	<circle class="st0" cx="2677.9" cy="1255.2" r="43.7"/>
</g>
</svg>
