<?xml version="1.0" encoding="utf-8"?>
<!-- Generator: Adobe Illustrator 25.0.1, SVG Export Plug-In . SVG Version: 6.00 Build 0)  -->
<svg version="1.1" id="Layer_1" xmlns="http://www.w3.org/2000/svg" xmlns:xlink="http://www.w3.org/1999/xlink" x="0px" y="0px"
	 viewBox="0 0 5102.3623 2834.6455" enable-background="new 0 0 5102.3623 2834.6455" xml:space="preserve">
<circle fill="none" stroke="#000000" stroke-miterlimit="10" cx="566.9291" cy="850.3937" r="113.3858"/>
<circle fill="none" stroke="#000000" stroke-miterlimit="10" cx="850.3937" cy="850.3937" r="113.3858"/>
<circle fill="none" stroke="#000000" stroke-miterlimit="10" cx="1133.8583" cy="850.3937" r="113.3858"/>
<circle fill="none" stroke="#000000" stroke-miterlimit="10" cx="1417.3229" cy="850.3937" r="113.3858"/>
<circle fill="none" stroke="#000000" stroke-miterlimit="10" cx="566.9291" cy="1133.8583" r="113.3858"/>
<circle fill="none" stroke="#000000" stroke-miterlimit="10" cx="850.3937" cy="1133.8583" r="113.3858"/>
<circle fill="none" stroke="#000000" stroke-miterlimit="10" cx="1133.8583" cy="1133.8583" r="113.3858"/>
<circle fill="none" stroke="#000000" stroke-miterlimit="10" cx="1417.3229" cy="1133.8583" r="113.3858"/>
<circle fill="none" stroke="#000000" stroke-miterlimit="10" cx="566.9291" cy="1417.3229" r="113.3858"/>
<circle fill="none" stroke="#000000" stroke-miterlimit="10" cx="850.3937" cy="1417.3229" r="113.3858"/>
<circle fill="none" stroke="#000000" stroke-miterlimit="10" cx="1133.8583" cy="1417.3229" r="113.3858"/>
<circle fill="none" stroke="#000000" stroke-miterlimit="10" cx="1417.3229" cy="1417.3229" r="113.3858"/>
<circle fill="none" stroke="#000000" stroke-miterlimit="10" cx="566.9291" cy="1700.7874" r="113.3858"/>
<circle fill="none" stroke="#000000" stroke-miterlimit="10" cx="850.3937" cy="1700.7874" r="113.3858"/>
<circle fill="none" stroke="#000000" stroke-miterlimit="10" cx="1133.8583" cy="1700.7874" r="113.3858"/>
<circle fill="none" stroke="#000000" stroke-miterlimit="10" cx="1417.3229" cy="1700.7874" r="113.3858"/>
<circle fill="none" stroke="#000000" stroke-miterlimit="10" cx="1700.7874" cy="850.3937" r="56.6929"/>
<circle fill="none" stroke="#000000" stroke-miterlimit="10" cx="1842.5197" cy="850.3937" r="56.6929"/>
<circle fill="none" stroke="#000000" stroke-miterlimit="10" cx="1984.252" cy="850.3937" r="56.6929"/>
<circle fill="none" stroke="#000000" stroke-miterlimit="10" cx="2125.9841" cy="850.3937" r="56.6929"/>
<circle fill="none" stroke="#000000" stroke-miterlimit="10" cx="1700.7874" cy="992.126" r="56.6929"/>
<circle fill="none" stroke="#000000" stroke-miterlimit="10" cx="1842.5197" cy="992.126" r="56.6929"/>
<circle fill="none" stroke="#000000" stroke-miterlimit="10" cx="1984.252" cy="992.126" r="56.6929"/>
<circle fill="none" stroke="#000000" stroke-miterlimit="10" cx="2125.9841" cy="992.126" r="56.6929"/>
<circle fill="none" stroke="#000000" stroke-miterlimit="10" cx="1700.7874" cy="1133.8583" r="56.6929"/>
<circle fill="none" stroke="#000000" stroke-miterlimit="10" cx="1842.5197" cy="1133.8583" r="56.6929"/>
<circle fill="none" stroke="#000000" stroke-miterlimit="10" cx="1984.252" cy="1133.8583" r="56.6929"/>
<circle fill="none" stroke="#000000" stroke-miterlimit="10" cx="2125.9841" cy="1133.8583" r="56.6929"/>
<circle fill="none" stroke="#000000" stroke-miterlimit="10" cx="1700.7874" cy="1275.5906" r="56.6929"/>
<circle fill="none" stroke="#000000" stroke-miterlimit="10" cx="1842.5197" cy="1275.5906" r="56.6929"/>
<circle fill="none" stroke="#000000" stroke-miterlimit="10" cx="1984.252" cy="1275.5906" r="56.6929"/>
<circle fill="none" stroke="#000000" stroke-miterlimit="10" cx="2125.9841" cy="1275.5906" r="56.6929"/>
<path fill="none" stroke="#000000" stroke-miterlimit="10" d="M700.0971,2076.1738c10.4766,0,19.4211-3.7063,26.834-11.1191
	c7.4012-7.4014,11.1077-16.3401,11.1077-26.8282c0-10.4766-3.7064-19.4154-11.1077-26.8282
	c-7.4128-7.4012-16.3574-11.1077-26.834-11.1077c-10.4823,0-19.427,3.7064-26.8282,11.1077
	c-7.4071,7.4128-11.1077,16.3517-11.1077,26.8282c0,10.4882,3.7006,19.4269,11.1077,26.8282
	C680.6701,2072.4675,689.6148,2076.1738,700.0971,2076.1738z"/>
<path fill="none" stroke="#000000" stroke-miterlimit="10" d="M2072.7024,2217.636c-13.196,17.7056-28.8192,35.595-46.8805,53.6562
	c-11.5725,11.5667-22.9497,20.9646-34.1494,28.1824c-11.2051,7.229-19.8743,10.8438-26.0134,10.8438
	c-5.0662,0-8.7668-1.354-11.1133-4.0737c-2.3523-2.708-3.5227-6.2307-3.5227-10.5681c0-3.9705,0.8145-8.5718,2.4382-13.8159
	c1.6294-5.2324,4.8826-12.7371,9.7595-22.4907c4.8767-9.7537,11.8306-22.6743,20.8669-38.7505
	c9.0249-16.0764,21.1367-36.8572,36.3123-62.3315c15.1753-25.4741,33.6903-56.376,55.5555-92.6824
	c21.8596-36.3179,47.9648-79.7617,78.3215-130.3545l-78.0518,5.4163l-119.2413,211.9292
	c-2.53-10.4766-7.4067-19.1516-14.6304-26.0251c-7.2349-6.8503-16.627-10.2927-28.188-10.2927
	c-19.5073,0-39.2898,3.9817-59.3479,11.9224c-20.0522,7.9519-38.2112,18.7957-54.4712,32.5198
	c-16.2598,13.7354-29.5364,29.8115-39.835,48.2402c-5.9089,10.5737-10.113,21.5691-12.6309,32.9749
	c-0.2175,0.2124-0.427,0.4226-0.6455,0.635c-19.8801,18.7842-39.571,34.4131-59.0784,46.8748
	c-19.5129,12.4731-37.7637,18.7041-54.7466,18.7041c-8.3135,0-15.2671-1.446-20.8669-4.3376
	c-5.6055-2.8916-10.115-6.6782-13.5461-11.3831c-3.4424-4.6931-5.8809-10.2012-7.3208-16.5352
	c-1.4458-6.3113-2.1631-12.7371-2.1631-19.2319c0-3.6145,0.1777-7.2292,0.5393-10.8438c0.3557-3.603,0.895-7.2292,1.6238-10.8438
	c9.7593-2.1687,23.1218-5.3242,40.1104-9.4783c16.9771-4.1538,33.8738-9.5701,50.6787-16.2598
	c16.7991-6.6899,31.3435-14.7222,43.6274-24.1201c12.2837-9.3979,18.4285-20.4138,18.4285-33.0706
	c0-12.6338-5.6055-21.7563-16.7991-27.3677c-11.2053-5.5996-25.4741-8.3994-42.8186-8.3994
	c-17.3442,0-35.6868,3.7981-55.0161,11.3831c-19.3293,7.5847-37.2188,17.7056-53.6565,30.3508
	c-16.4434,12.6567-30.0813,27.4595-40.9194,44.4421c-7.2896,11.4246-12.115,23.3337-14.5024,35.73
	c-1.4658,1.457-2.9502,2.9187-4.4595,4.3862c-19.8804,18.7842-39.5713,34.4131-59.0784,46.8748
	c-19.5129,12.4731-37.7639,18.7041-54.7466,18.7041c-8.3137,0-15.2673-1.446-20.8669-4.3376
	c-5.6055-2.8916-10.1152-6.6782-13.5461-11.3831c-3.4426-4.6931-5.8809-10.2012-7.321-16.5352
	c-1.4458-6.3113-2.1631-12.7371-2.1631-19.2319c0-3.6145,0.178-7.2292,0.5396-10.8438c0.3555-3.603,0.895-7.2292,1.6235-10.8438
	c9.7593-2.1687,23.1218-5.3242,40.1104-9.4783c16.9771-4.1538,33.8738-9.5701,50.6787-16.2598
	c16.7993-6.6899,31.3438-14.7222,43.6274-24.1201s18.4287-20.4138,18.4287-33.0706c0-12.6338-5.6055-21.7563-16.7993-27.3677
	c-11.2051-5.5996-25.4741-8.3994-42.8184-8.3994s-35.6868,3.7981-55.0161,11.3831c-19.3296,7.5847-37.2188,17.7056-53.6565,30.3508
	c-16.4436,12.6567-30.0813,27.4595-40.9194,44.4421c-8.2266,12.8926-13.3215,26.4009-15.3057,40.532
	c-8.1406,9.3867-16.9451,18.8223-26.4285,28.3057c-11.5723,11.5667-22.9497,20.9646-34.1492,28.1824
	c-11.2051,7.229-19.8743,10.8438-26.0134,10.8438c-5.0662,0-8.7668-1.354-11.1133-4.0737
	c-2.3525-2.708-3.5229-6.2307-3.5229-10.5681c0-3.9705,0.8147-8.5718,2.4385-13.8159c1.6294-5.2324,4.8826-12.7371,9.7593-22.4907
	c4.877-9.7537,11.8306-22.6743,20.8672-38.7505c9.0249-16.0764,21.1367-36.8572,36.312-62.3315
	c15.1755-25.4741,33.6902-56.376,55.5557-92.6824c21.8596-36.3179,47.9648-79.7617,78.3215-130.3545l-78.052,5.4163
	l-119.241,211.9292c-2.53-10.4766-7.407-19.1516-14.6304-26.0251c-7.2349-6.8503-16.6272-10.2927-28.188-10.2927
	c-19.5073,0-39.2898,3.9817-59.3479,11.9224c-20.0525,7.9519-38.2114,18.7957-54.4712,32.5198
	c-16.2599,13.7354-29.5363,29.8115-39.8349,48.2402c-6.8354,12.2312-11.3867,25.0269-13.6846,38.3699
	c-7.6384,8.7029-15.2681,16.8713-22.8975,24.5007c-10.8379,10.8438-21.3203,19.9663-31.4353,27.3677
	c-10.1208,7.4126-19.1572,11.1191-27.0979,11.1191c-4.3374,0-7.5044-1.354-9.4839-4.0737c-1.991-2.708-2.9834-5.8635-2.9834-9.478
	c0-8.3079,3.7007-17.9697,11.1133-28.9971c7.4014-11.0159,15.623-22.5825,24.6597-34.6885
	c9.0249-12.106,17.2524-24.4758,24.6592-37.1326c7.4014-12.6338,11.1135-24.9236,11.1135-36.8459
	c0-14.4583-4.6072-25.2102-13.8215-32.2556c-9.2144-7.0457-20.689-10.5684-34.4187-10.5684
	c-13.3684,0-26.8284,3.9817-40.3801,11.9224c-13.5459,7.9519-26.7422,17.8088-39.5652,29.5361
	c-12.8289,11.7502-25.021,24.4873-36.5818,38.2114c-11.5725,13.7354-22.0435,26.5642-31.4355,38.4866l-1.0845-1.0786
	c23.845-37.5801,48.7798-74.4375,74.7932-110.5718l-76.9619,3.2473l-75.1326,128.4883c-0.0696,0.0793-0.136,0.1575-0.2056,0.2368
	c-9.0364,10.3044-18.0729,19.5188-27.1035,27.6428c-9.0365,8.1357-17.7976,14.8257-26.2832,20.0581
	c-8.4971,5.2441-16.3574,7.8604-23.5808,7.8604c-4.699,0-7.9521-1.7097-9.7537-5.1523c-1.813-3.4309-2.708-7.6765-2.708-12.7371
	c0-6.8618,2.6162-16.0762,7.8545-27.6428c5.2383-11.5552,12.1978-24.843,20.8669-39.8408
	c8.675-14.9861,18.6066-31.1658,29.8118-48.5042c11.1937-17.3386,22.5768-35.2278,34.1492-53.6565l-77.507,2.1687
	c-21.326,35.7673-38.9399,65.8542-52.8475,90.2383c-13.9132,24.3958-20.8669,44.7175-20.8669,60.9775
	c0,15.1812,3.7925,27.0117,11.3831,35.5032c7.585,8.48,18.7844,12.7371,33.6041,12.7371c17.3442,0,33.0591-4.4292,47.1559-13.2764
	c13.7621-8.6516,28.7314-21.1782,44.9069-37.5894l-25.9388,44.3594l73.7145-3.2473c3.6031-7.5962,9.1168-17.3499,16.5295-29.2722
	c7.4012-11.9224,16.0704-24.5679,26.0135-37.936c9.937-13.3682,20.5054-26.7363,31.7107-40.116
	c11.1936-13.3569,22.2209-25.4744,33.0591-36.3066c10.8438-10.8438,20.9531-19.5989,30.3511-26.2888
	c9.3921-6.6782,17.3442-10.0291,23.8503-10.0291c9.7537,0,14.6362,5.0605,14.6362,15.1814c0,7.5847-3.5227,15.709-10.574,24.384
	c-7.0457,8.6748-14.9001,18.1531-23.5752,28.4575c-8.6692,10.293-16.5295,21.3203-23.575,33.0591
	c-7.0457,11.7502-10.5684,24.1201-10.5684,37.1326c0,15.1699,4.062,27.5513,12.1919,37.1213s20.3276,14.3665,36.5876,14.3665
	c14.4468,0,28.6296-4.2571,42.543-12.7371c13.9075-8.4915,28.2683-20.322,43.094-35.5032
	c5.5613-5.7019,11.1079-11.6399,16.6411-17.7949c-0.248,3.1909-0.3872,6.4082-0.3872,9.6592
	c0,15.1812,4.1482,28.3774,12.4619,39.5769c8.3076,11.188,20.9529,16.7991,37.9413,16.7991c22.3989,0,41.8203-5.875,58.2637-17.614
	c16.4377-11.7388,30.9822-25.7495,43.6333-42.0093l1.0842,1.0901c-1.813,4.6931-2.708,9.0308-2.708,13.001
	c0,13.0125,4.062,23.8447,12.1919,32.5198c8.1301,8.675,19.2434,13.0125,33.3345,13.0125c13.7239,0,27.0979-3.3506,40.1047-10.0291
	c13.0125-6.6782,27.2815-17.6138,42.8184-32.7952c9.6814-9.4956,18.7358-19.0149,27.1702-28.5588
	c-0.0437,1.2075-0.0667,2.4192-0.0667,3.6355c0,22.0432,6.5007,38.8423,19.5132,50.3977
	c13.0068,11.5667,31.9746,17.3499,56.9097,17.3499c28.8994,0,55.0964-6.1504,78.5854-18.4287
	c23.489-12.2781,47.7009-30.3508,72.6301-54.207c1.2222-1.1873,2.4207-2.3701,3.6191-3.553
	c-0.238,2.7908-0.3718,5.6025-0.3718,8.4412c0,22.0432,6.5005,38.8423,19.5129,50.3977
	c13.0068,11.5667,31.9749,17.3499,56.9097,17.3499c28.8994,0,55.0964-6.1504,78.5857-18.4287
	c23.2903-12.1741,47.2925-30.0535,71.9985-53.6111c-0.6597,5.1418-0.9922,10.3628-0.9922,15.6638
	c0,15.1812,4.1479,28.3774,12.4617,39.5769c8.3079,11.188,20.9531,16.7991,37.9417,16.7991c22.3989,0,41.8201-5.875,58.2634-17.614
	c16.4377-11.7388,30.9822-25.7495,43.6333-42.0093l1.0842,1.0901c-1.813,4.6931-2.708,9.0308-2.708,13.001
	c0,13.0125,4.062,23.8447,12.1921,32.5198c8.1299,8.675,19.2434,13.0125,33.3345,13.0125c13.7239,0,27.0979-3.3506,40.1045-10.0291
	c13.0125-6.6782,27.2815-17.6138,42.8186-32.7952c19.1514-18.7842,35.859-37.6604,50.1393-56.6399
	c14.269-18.9678,25.5547-34.4131,33.874-46.3354l-4.877-2.708C2096.094,2186.0227,2085.887,2199.9302,2072.7024,2217.636z"/>
<path fill="none" stroke="#000000" stroke-miterlimit="10" d="M1603.6044,2199.2073c5.772-11.9224,12.5479-23.5808,20.322-34.9639
	c7.7686-11.3831,16.2598-21.1367,25.4741-29.261c9.2144-8.1355,17.7917-12.1978,25.7439-12.1978
	c10.115,0,15.1755,5.0605,15.1755,15.1697c0,8.675-2.1631,17.7173-6.5005,27.1038c-4.3374,9.3979-10.7578,18.2566-19.2434,26.5642
	c-8.4915,8.3079-18.79,15.801-30.8904,22.4907c-12.1116,6.6899-25.7495,11.647-40.925,14.906
	C1594.2008,2221.0669,1597.8209,2211.1296,1603.6044,2199.2073z"/>
<path fill="none" stroke="#000000" stroke-miterlimit="10" d="M1372.7189,2199.2073c5.7717-11.9224,12.5476-23.5808,20.3218-34.9639
	c7.7686-11.3831,16.26-21.1367,25.4744-29.261c9.2141-8.1355,17.7917-12.1978,25.7439-12.1978
	c10.115,0,15.1753,5.0605,15.1753,15.1697c0,8.675-2.1628,17.7173-6.5005,27.1038c-4.3374,9.3979-10.7576,18.2566-19.2432,26.5642
	c-8.4915,8.3079-18.7903,15.801-30.8904,22.4907c-12.1118,6.6899-25.7498,11.647-40.925,14.906
	C1363.3151,2221.0669,1366.9354,2211.1296,1372.7189,2199.2073z"/>
<path fill="none" stroke="#000000" stroke-miterlimit="10" d="M1173.2628,2175.9019c-2.8975,10.1208-6.8735,20.6892-11.9282,31.7051
	c-5.0603,11.0273-10.9297,22.135-17.6138,33.3345c-6.6899,11.1995-14.0051,21.2285-21.9514,30.0754
	c-7.9521,8.8586-16.1738,15.9961-24.6594,21.4121c-8.4973,5.4163-17.0747,8.1357-25.7439,8.1357
	c-6.8677,0-11.7502-2.6277-14.6362-7.8604c-2.8975-5.2324-4.3374-12.0142-4.3374-20.3335c0-12.6453,3.3391-27.5396,10.0291-44.7061
	c6.6841-17.1663,15.1753-33.5181,25.4741-49.0549c10.2986-15.5369,21.4924-28.7214,33.604-39.5652
	c12.1003-10.8438,23.5752-16.26,34.4189-16.26c8.3076,0,13.9993,2.5359,17.0688,7.585c3.0696,5.0603,4.6072,11.7502,4.6072,20.0581
	C1177.5946,2157.2896,1176.1488,2165.7925,1173.2628,2175.9019z"/>
<path fill="none" stroke="#000000" stroke-miterlimit="10" d="M1936.3925,2175.9019c-2.8972,10.1208-6.8733,20.6892-11.928,31.7051
	c-5.0605,11.0273-10.9299,22.135-17.614,33.3345c-6.6897,11.1995-14.0051,21.2285-21.9514,30.0754
	c-7.9521,8.8586-16.1738,15.9961-24.6594,21.4121c-8.4971,5.4163-17.0745,8.1357-25.7439,8.1357
	c-6.8677,0-11.7502-2.6277-14.6362-7.8604c-2.8975-5.2324-4.3374-12.0142-4.3374-20.3335c0-12.6453,3.3391-27.5396,10.0291-44.7061
	c6.6841-17.1663,15.1755-33.5181,25.4741-49.0549s21.4924-28.7214,33.6042-39.5652c12.1001-10.8438,23.575-16.26,34.4187-16.26
	c8.3079,0,13.9993,2.5359,17.0688,7.585c3.0696,5.0603,4.6072,11.7502,4.6072,20.0581
	C1940.7242,2157.2896,1939.2784,2165.7925,1936.3925,2175.9019z"/>
<path fill="none" stroke="#000000" stroke-miterlimit="10" d="M1708.5154,1512.7216h29.7782c4.121,0,7.4615,3.3407,7.4615,7.4617
	v7.4274c0,4.121-3.3406,7.4617-7.4615,7.4617h-29.7782c-4.121,0-7.4617,3.3407-7.4617,7.4617v7.4275
	c0,4.121,3.3407,7.4617,7.4617,7.4617h52.1289c4.121,0,7.4617-3.3407,7.4617-7.4617v-52.129c0-4.1208-3.3407-7.4615-7.4617-7.4615
	h-29.7782c-4.121,0-7.4617-3.3407-7.4617-7.4617v-7.4275c0-4.121,3.3407-7.4617,7.4617-7.4617h29.7782
	c4.121,0,7.4617-3.3407,7.4617-7.4617v-7.4274c0-4.121-3.3407-7.4617-7.4617-7.4617h-52.1289c-4.121,0-7.4617,3.3407-7.4617,7.4617
	v52.1289C1701.0537,1509.3809,1704.3944,1512.7216,1708.5154,1512.7216z"/>
<path fill="none" stroke="#000000" stroke-miterlimit="10" d="M2058.6658,1453.131v7.4274c0,4.121,3.3406,7.4617,7.4617,7.4617
	h7.4275c4.1208,0,7.4614,3.3407,7.4614,7.4617v74.4797c0,4.121,3.3408,7.4617,7.4617,7.4617h7.4275
	c4.1211,0,7.4617-3.3407,7.4617-7.4617v-74.4797c0-4.121,3.3408-7.4617,7.4617-7.4617h7.4275c4.1208,0,7.4617-3.3407,7.4617-7.4617
	v-7.4274c0-4.121-3.3408-7.4617-7.4617-7.4617h-52.1289C2062.0063,1445.6693,2058.6658,1449.01,2058.6658,1453.131z"/>
<path fill="none" stroke="#000000" stroke-miterlimit="10" d="M1805.3458,1445.6693h-7.4275c-4.121,0-7.4617,3.3407-7.4617,7.4617
	v81.9413v14.8892c0,4.121,3.3407,7.4617,7.4617,7.4617h14.8892h37.2397c4.121,0,7.4617-3.3407,7.4617-7.4617v-7.4275
	c0-4.121-3.3407-7.4617-7.4617-7.4617h-29.7782c-4.1208,0-7.4615-3.3407-7.4615-7.4617v-74.4796
	C1812.8075,1449.01,1809.4668,1445.6693,1805.3458,1445.6693z"/>
<path fill="none" stroke="#000000" stroke-miterlimit="10" d="M1887.3214,1445.6693c-4.121,0-7.4617,3.3407-7.4617,7.4617v14.889
	v22.3508v22.3507v22.3507v14.8892c0,4.121,3.3407,7.4617,7.4617,7.4617h14.889h37.2399c4.121,0,7.4617-3.3407,7.4617-7.4617v-7.4275
	c0-4.121-3.3407-7.4617-7.4617-7.4617h-29.7782c-4.121,0-7.4617-3.3407-7.4617-7.4617v-7.4274c0-4.121,3.3407-7.4617,7.4617-7.4617
	h29.7782c4.121,0,7.4617-3.3407,7.4617-7.4617v-7.4275c0-4.1208-3.3407-7.4615-7.4617-7.4615h-29.7782
	c-4.121,0-7.4617-3.3407-7.4617-7.4617v-7.4275c0-4.121,3.3407-7.4617,7.4617-7.4617h29.7782c4.121,0,7.4617-3.3407,7.4617-7.4617
	v-7.4274c0-4.121-3.3407-7.4617-7.4617-7.4617h-37.2399H1887.3214z"/>
<path fill="none" stroke="#000000" stroke-miterlimit="10" d="M1976.7244,1445.6693c-4.121,0-7.4617,3.3407-7.4617,7.4617v14.889
	v22.3508v22.3507v22.3507v14.8892c0,4.121,3.3407,7.4617,7.4617,7.4617h14.889h37.2399c4.121,0,7.4617-3.3407,7.4617-7.4617v-7.4275
	c0-4.121-3.3407-7.4617-7.4617-7.4617h-29.7782c-4.121,0-7.4617-3.3407-7.4617-7.4617v-7.4274c0-4.121,3.3407-7.4617,7.4617-7.4617
	h29.7782c4.121,0,7.4617-3.3407,7.4617-7.4617v-7.4275c0-4.1208-3.3407-7.4615-7.4617-7.4615h-29.7782
	c-4.121,0-7.4617-3.3407-7.4617-7.4617v-7.4275c0-4.121,3.3407-7.4617,7.4617-7.4617h29.7782c4.121,0,7.4617-3.3407,7.4617-7.4617
	v-7.4274c0-4.121-3.3407-7.4617-7.4617-7.4617h-37.2399H1976.7244z"/>
<path fill="none" stroke="#000000" stroke-miterlimit="10" d="M1699.1267,2005.8459c-5.9154,0-10.9719,3.6469-13.0645,8.8118
	h-16.8959v-16.8959c5.1649-2.0925,8.8119-7.1489,8.8119-13.0645c0-7.7866-6.3123-14.099-14.099-14.099
	c-7.7866,0-14.099,6.3124-14.099,14.099c0,5.9155,3.647,10.9719,8.8119,13.0645v16.8959h-16.8959
	c-2.0925-5.1649-7.149-8.8118-13.0645-8.8118c-7.7867,0-14.099,6.3123-14.099,14.0989c0,7.7867,6.3123,14.099,14.099,14.099
	c5.9154,0,10.9719-3.6469,13.0645-8.8118h16.8959v16.8958c-5.1649,2.0927-8.8119,7.149-8.8119,13.0646
	c0,7.7866,6.3124,14.0989,14.099,14.0989c7.7867,0,14.099-6.3123,14.099-14.0989c0-5.9155-3.647-10.9719-8.8119-13.0646v-16.8958
	h16.8959c2.0925,5.1649,7.149,8.8118,13.0645,8.8118c7.7867,0,14.099-6.3123,14.099-14.099
	C1713.2257,2012.1582,1706.9135,2005.8459,1699.1267,2005.8459z"/>
<rect x="2704.4746" y="1539.5703" transform="matrix(0.7071 -0.7071 0.7071 0.7071 -304.0301 2381.417)" fill="none" stroke="#000000" stroke-miterlimit="10" width="36.27" height="36.27"/>
<rect x="2704.4746" y="2308.9741" transform="matrix(0.7071 -0.7071 0.7071 0.7071 -848.0807 2606.7703)" fill="none" stroke="#000000" stroke-miterlimit="10" width="36.27" height="36.27"/>
<path fill="none" stroke="#000000" stroke-miterlimit="10" d="M2857.6143,1282.7682c0,55.5347,0,145.5364-138.8367,145.5364
	c-128.3008,0-128.3008-94.7896-128.3008-135.9606v-68.9382h78.5142v74.6821c0,57.4506,34.467,60.3225,53.6187,60.3225
	c52.6628,0,53.6187-40.2151,53.6187-70.8542v-169.4717c-28.7231,35.425-59.3623,40.2129-84.2578,40.2129
	c-104.3655,0-104.3655-90.0038-104.3655-133.0886V868.1826c0-30.6392,0-131.1747,135.9607-131.1747
	c21.0676,0,57.4507,2.8719,86.1738,22.9794c47.8748,32.5532,47.8748,81.386,47.8748,121.5989V1282.7682z"/>
<path fill="none" stroke="#000000" stroke-miterlimit="10" d="M2668.0352,1022.3347c0,24.8954,0,64.1525,52.6584,64.1525
	c55.5347,0,55.5347-44.0449,55.5347-65.1084V870.0966c0-25.8514,0-67.0223-54.5786-67.0223
	c-53.6145,0-53.6145,39.257-53.6145,61.2784V1022.3347z"/>
<polygon fill="none" stroke="#000000" stroke-miterlimit="10" points="2876.4905,1790.0375 2878.0015,1788.5265 
	2979.0776,1788.5265 2979.0776,1685.9392 2876.4905,1685.9392 2876.4905,1787.0154 2874.9792,1788.5265 2775.4143,1788.5265 
	2773.9033,1787.0154 2773.9033,1685.9392 2671.3162,1685.9392 2671.3162,1787.0154 2669.8049,1788.5265 2570.24,1788.5265 
	2568.729,1787.0154 2568.729,1685.9392 2466.1418,1685.9392 2466.1418,1788.5265 2567.2178,1788.5265 2568.729,1790.0375 
	2568.729,1889.6025 2567.2178,1891.1136 2466.1418,1891.1136 2466.1418,1993.7008 2567.2178,1993.7008 2568.729,1995.2119 
	2568.729,2094.7769 2567.2178,2096.2881 2466.1418,2096.2881 2466.1418,2198.8752 2568.729,2198.8752 2568.729,2097.7991 
	2570.24,2096.2881 2669.8049,2096.2881 2671.3162,2097.7991 2671.3162,2198.8752 2773.9033,2198.8752 2773.9033,2097.7991 
	2775.4143,2096.2881 2874.9792,2096.2881 2876.4905,2097.7991 2876.4905,2198.8752 2979.0776,2198.8752 2979.0776,2096.2881 
	2878.0015,2096.2881 2876.4905,2094.7769 2876.4905,1995.2119 2878.0015,1993.7008 2979.0776,1993.7008 2979.0776,1891.1136 
	2878.0015,1891.1136 2876.4905,1889.6025 "/>
<polygon fill="none" stroke="#000000" stroke-miterlimit="10" points="2876.4905,1992.1897 2874.9792,1993.7008 
	2775.4143,1993.7008 2773.9033,1992.1897 2773.9033,1892.6248 2775.4143,1891.1136 2874.9792,1891.1136 2876.4905,1892.6248 "/>
<polygon fill="none" stroke="#000000" stroke-miterlimit="10" points="2672.8271,2096.2881 2671.3162,2094.7769 
	2671.3162,1995.2119 2672.8271,1993.7008 2772.3921,1993.7008 2773.9033,1995.2119 2773.9033,2094.7769 2772.3921,2096.2881 "/>
<polygon fill="none" stroke="#000000" stroke-miterlimit="10" points="2570.24,1993.7008 2568.729,1992.1897 2568.729,1892.6248 
	2570.24,1891.1136 2669.8049,1891.1136 2671.3162,1892.6248 2671.3162,1992.1897 2669.8049,1993.7008 "/>
<polygon fill="none" stroke="#000000" stroke-miterlimit="10" points="2772.3921,1788.5265 2773.9033,1790.0375 
	2773.9033,1889.6025 2772.3921,1891.1136 2672.8271,1891.1136 2671.3162,1889.6025 2671.3162,1790.0375 2672.8271,1788.5265 "/>
<line fill="none" stroke="#000000" stroke-miterlimit="10" x1="2267.7166" y1="566.9291" x2="2267.7166" y2="2494.4883"/>
<line fill="none" stroke="#000000" stroke-miterlimit="10" x1="226.7717" y1="283.4646" x2="340.1575" y2="283.4646"/>
<line fill="none" stroke="#000000" stroke-miterlimit="10" x1="283.4646" y1="226.7717" x2="283.4646" y2="340.1575"/>
<line fill="none" stroke="#000000" stroke-miterlimit="10" x1="226.7717" y1="2551.1812" x2="340.1575" y2="2551.1812"/>
<line fill="none" stroke="#000000" stroke-miterlimit="10" x1="283.4646" y1="2494.4883" x2="283.4646" y2="2607.874"/>
<line fill="none" stroke="#000000" stroke-miterlimit="10" x1="4762.2046" y1="283.4646" x2="4875.5903" y2="283.4646"/>
<line fill="none" stroke="#000000" stroke-miterlimit="10" x1="4818.8975" y1="226.7717" x2="4818.8975" y2="340.1575"/>
<line fill="none" stroke="#000000" stroke-miterlimit="10" x1="4762.2046" y1="2551.1812" x2="4875.5903" y2="2551.1812"/>
<line fill="none" stroke="#000000" stroke-miterlimit="10" x1="4818.8975" y1="2494.4883" x2="4818.8975" y2="2607.874"/>
</svg>
