<?xml version="1.0" encoding="utf-8"?>
<!-- Generator: Adobe Illustrator 25.0.1, SVG Export Plug-In . SVG Version: 6.00 Build 0)  -->
<svg version="1.1" id="Layer_1" xmlns="http://www.w3.org/2000/svg" xmlns:xlink="http://www.w3.org/1999/xlink" x="0px" y="0px"
	 viewBox="0 0 5102.3623 2834.6455" enable-background="new 0 0 5102.3623 2834.6455" xml:space="preserve">
<path fill="none" stroke="#000000" stroke-miterlimit="10" d="M845.8748,1183.5354c-4.4485,8.5054-3.801,18.77,1.9336,30.7939
	c5.739,12.0337,14.8826,22.2983,27.4392,30.7939c12.5518,8.5049,24.8425,12.7529,36.8762,12.7529
	c12.0239,0,20.2625-4.248,24.7117-12.7529c4.4434-8.4956,3.8057-18.7603-1.9333-30.7939
	c-5.7346-12.0239-14.8879-22.2886-27.4395-30.7939c-12.5569-8.4951-24.8522-12.7529-36.8761-12.7529
	C858.5529,1170.7825,850.3188,1175.0403,845.8748,1183.5354z"/>
<path fill="none" stroke="#000000" stroke-miterlimit="10" d="M1023.7987,1362.717c-1.6021,6.2207-3.6035,14.415-6.0105,24.5728
	c-2.4116,10.1675-5.4648,20.9473-9.1448,32.3491c-3.6852,11.4111-7.8988,23.0176-12.6237,34.8369
	c-4.7343,11.8203-10.0621,22.3955-15.9734,31.7275c-5.9213,9.3311-12.3197,17.0098-19.1942,23.0176
	c-6.8801,6.0166-14.4674,9.0205-22.7589,9.0205c-5.395,0-10.0641-1.9639-14.0165-5.9102
	c-3.9575-3.9365-7.3104-8.8066-10.0825-14.6191c-3.7554-7.874-5.7955-18.4492-6.1116-31.7275
	c-0.3203-13.2676,0.4009-28.5088,2.1438-45.7236c1.7482-17.2051,4.2957-35.7705,7.6614-55.6777
	c3.3563-19.9072,6.6294-40.4365,9.8198-61.5874l-87.7732,2.4883c-4.894,41.0581-8.6458,75.5845-11.2549,103.5791
	c-1.0627,11.3599-1.1594,21.9376-0.3245,31.7609c-0.9526,2.5647-1.9182,5.1395-2.9199,7.7426
	c-4.6327,12.0332-10.1232,22.9199-16.4617,32.6602c-6.3441,9.749-13.3179,17.7295-20.9268,23.9502s-15.9814,9.3311-25.0991,9.3311
	c-5.395,0-10.282-1.3408-14.681-4.043c-4.3944-2.6924-8.5153-6.3184-12.3464-10.8867c-3.8363-4.5586-7.3983-9.8467-10.6759-15.8633
	c-3.2832-6.0078-6.5049-12.335-9.6716-18.9746c-8.5022-17.8271-15.3164-39.2891-20.4429-64.3867
	c-5.1223-25.0879-8.2517-51.2158-9.3893-78.3843c-1.1326-27.1582-0.2094-54.1226,2.7996-80.8726
	c2.9987-26.75,8.3728-50.7007,16.1217-71.8521c7.7395-21.1514,17.9927-38.356,30.741-51.6343
	c12.7434-13.2681,28.0359-19.9067,45.8728-19.9067c8.7095,0,17.1837,3.2173,25.4387,9.6421
	c8.2498,6.4351,16.5364,13.3755,24.8695,20.8403c8.3231,7.4653,16.8287,14.4155,25.4916,20.8403
	c8.6681,6.4351,17.9738,9.6426,27.9274,9.6426c8.7095,0,14.4823-2.8965,17.3086-8.7095c2.8317-5.8027,2.0707-13.2681-2.2826-22.3955
	c-4.3484-9.1177-10.8243-16.3784-19.4048-21.7734c-8.5847-5.3848-17.7743-9.4282-27.5588-12.1309
	c-9.7894-2.6924-19.4952-4.3545-29.1235-4.9766c-9.6282-0.6221-17.7667-0.9331-24.3956-0.9331
	c-21.9873,0-44.2694,4.3545-66.8661,13.064c-22.5963,8.7095-43.0648,21.8804-61.4106,39.5029
	c-18.3406,17.6328-33.6853,39.8145-46.0155,66.5645c-12.3397,26.7505-19.3248,57.9619-20.9791,93.6255h-83.3608
	c-0.1885-9.9536,0.2472-22.0845,1.3062-36.3926c1.0496-14.3081,3.0103-29.3354,5.8623-45.1021
	c2.8472-15.7563,6.744-31.5132,11.6666-47.2793c4.9274-15.7563,11.1576-29.8608,18.7057-42.3027
	c7.5383-12.4419,16.7419-22.4927,27.6023-30.1714c10.8544-7.6694,23.5355-11.5088,38.058-11.5088
	c8.291,0,16.2572,0.6221,23.9076,1.8662c7.6403,1.2441,13.7402,1.8662,18.3086,1.8662c7.4653,0,12.2104-1.1372,14.2314-3.4214
	c2.0261-2.2744,2.4407-4.666,1.2539-7.1543c-1.1866-2.4883-3.4597-5.0737-6.8193-7.7759c-3.3643-2.6929-9.6073-4.0439-18.725-4.0439
	c-5.3945,0-13.0273,0.729-22.9122,2.1772c-9.8804,1.458-21.6873,3.0137-35.4114,4.666
	c-13.7299,1.6621-29.4735,3.2173-47.2319,4.6655c-17.7632,1.458-37.6384,2.1772-59.616,2.1772
	c-55.1626,0-104.4961,3.9468-148.0206,11.8198c-43.5196,7.8833-78.7783,19.3921-105.7758,34.5264
	c-26.9925,15.1445-44.8419,33.8071-53.548,55.9888c-8.7015,22.1914-6.1235,47.3862,7.7431,75.585
	c5.1458,10.7896,12.2647,20.9473,21.3809,30.4829c9.1113,9.5449,19.0823,17.8364,29.9087,24.8838
	c10.8308,7.0566,22.4142,12.6558,34.7606,16.7964c12.3412,4.1504,24.3225,6.2212,35.9382,6.2212
	c16.1743,0,30.8048-2.5859,43.8816-7.7764c13.082-5.1807,23.509-12.4419,31.2964-21.7734
	c7.7776-9.3315,12.2887-20.3154,13.5135-32.9712c1.2202-12.646-1.8201-26.6431-9.1399-41.9912
	c-3.9545-8.2915-8.8005-16.272-14.533-23.9507c-5.7379-7.6694-11.3463-13.7837-16.84-18.3521l-4.7086,1.8662
	c4.6671,4.5684,9.612,10.3716,14.8393,17.4189c5.2322,7.0566,9.7257,14.522,13.4806,22.395
	c4.9464,10.3716,7.3997,20.5293,7.3837,30.4829c-0.0253,9.9536-2.1949,18.877-6.5272,26.7505
	c-4.3274,7.8828-10.7988,14.104-19.4045,18.6626c-8.6108,4.5684-18.9277,6.8433-30.9516,6.8433
	c-18.2549,0-33.8313-5.4922-46.7434-16.4858c-12.9177-10.9839-23.0287-24.1548-30.3487-39.5029
	c-12.8553-26.9546-15.9089-49.8652-9.145-68.7417c6.7582-18.8672,19.6149-34.7305,38.5794-47.5903
	c18.9594-12.8501,42.2118-23.0176,69.7559-30.4829c27.5446-7.4653,55.8262-13.1611,84.8445-17.1074
	c29.0134-3.937,56.9683-6.4253,83.8444-7.4653c26.8807-1.0303,49.0259-1.5552,66.4448-1.5552l0.5934,1.2441
	c-34.3782,7.0566-61.814,18.6631-82.2988,34.8374c-20.4941,16.1743-36.4258,35.1484-47.8149,56.9219
	s-19.3027,45.4131-23.7209,70.9189c-4.4285,25.5059-7.7557,50.9146-10.0012,76.207c-2.2416,25.3018-4.3152,49.8745-6.2117,73.7183
	c-1.9014,23.8535-6.1169,44.791-12.6476,62.832c-6.5398,18.041-16.3036,32.5625-29.3101,43.5469
	c-13.012,10.9932-31.5435,16.4854-55.5918,16.4854c-14.522,0-26.9194-4.0439-37.201-12.1309
	c-10.2919-8.0869-18.6915-18.9736-25.219-32.6602c5.034-2.4883,8.5926-6.3184,10.6855-11.5088
	c2.0883-5.1807,1.4564-11.2949-1.9091-18.3516c-5.1414-10.7803-12.7019-20.1113-22.683-27.9951
	c-9.9756-7.873-20.781-11.8193-32.387-11.8193c-14.9307,0-23.9177,5.2876-26.9608,15.8633
	c-3.0434,10.5762-1.3013,22.707,5.2256,36.3926c5.7394,12.0342,13.8425,22.5029,24.3146,31.416
	c10.4763,8.9229,22.0223,16.1748,34.646,21.7734c12.6233,5.5986,25.4894,9.749,38.5938,12.4424
	c13.1039,2.6924,25.2568,4.043,36.4546,4.043c61.7921,0,108.8242-18.5557,141.1011-55.6777
	c32.2723-37.1113,48.9447-92.3809,50.0164-165.7886h83.3608c0.1692,10.7896,0.5795,22.0845,1.2396,33.9043
	c0.6606,11.8198,1.8772,23.9507,3.6704,36.3926c1.7834,12.4419,4.2954,24.8838,7.5369,37.3257
	c3.2319,12.4424,7.7269,24.6797,13.4617,36.7041c5.1455,10.7891,11.2249,21.1514,18.2559,31.1045
	c7.0217,9.9541,14.9082,18.6631,23.6588,26.1279c8.7418,7.4658,18.454,13.4824,29.1334,18.041
	c10.6698,4.5586,22.2377,6.8428,34.6796,6.8428c14.5122,0,27.2301-2.9062,38.1488-8.709
	c10.9185-5.8027,20.4221-13.4727,28.5256-23.0176c8.0985-9.5352,15.093-20.5293,20.9791-32.9707
	c2.5403-5.3701,4.9271-10.7594,7.1787-16.1674c1.7188,8.3284,4.2496,15.9988,7.5936,23.0101
	c8.3075,17.4189,19.1428,31.0078,32.4972,40.7471c13.3549,9.7402,28.5319,14.6191,45.5421,14.6191
	c19.9072,0,35.5239-5.083,46.8535-15.2412c11.3301-10.1572,21.8837-24.9805,31.6652-44.4795
	c9.567-19.0713,17.0182-38.667,22.3519-58.7886c5.3389-20.1108,9.6216-37.2188,12.8486-51.3228L1023.7987,1362.717z"/>
<path fill="none" stroke="#000000" stroke-miterlimit="10" d="M190.1318,1716.1448c0-34.3638,1.6107-59.0631,18.7925-78.9293
	c15.5711-17.7189,38.6593-26.3101,62.2845-26.3101c20.9404,0,41.3437,4.8331,56.9148,21.4779
	c20.9404,22.0145,20.9404,48.3236,20.9404,95.0365v179.873c0,27.9208-1.0742,89.1312-82.6878,89.1312
	c-10.2019,0-48.8607,0-67.1166-37.0486c-9.1277-17.1824-9.1277-35.4379-9.1277-53.6934v-189.5374H190.1318z"/>
<path fill="none" stroke="#000000" stroke-miterlimit="10" d="M299.6662,1712.3857c0-32.7529,0-57.9879-28.9944-57.9879
	c-3.7585,0-21.4774,0-27.9208,18.2555c-2.6843,7.517-2.6843,15.5706-2.6843,39.1958v203.4973
	c0,18.7931,1.6107,39.7334,28.9944,39.7334c29.531,0,30.6052-24.6993,30.6052-51.546v-191.1481H299.6662z"/>
<path fill="none" stroke="#000000" stroke-miterlimit="10" d="M458.59,1613.5902l56.3783,242.6942
	c3.2214,14.4965,5.3691,25.236,8.0541,37.5851h3.2214c-2.1478-17.7189-4.2957-35.4379-5.3693-53.6934l-2.1478-35.4377
	l-2.1477-191.1482h46.7134v379.0748h-55.3046l-62.2841-284.0375h-3.2214l2.6843,32.7531l2.1478,32.7529l4.2957,218.5314h-46.7135
	v-379.0748H458.59V1613.5902z"/>
<polygon fill="none" stroke="#000000" stroke-miterlimit="10" points="672.4961,1613.0537 672.4961,1946.4888 755.1835,1946.4888 
	755.1835,1992.665 622.0243,1992.665 622.0243,1613.0537 "/>
<rect x="798.8699" y="1613.5902" fill="none" stroke="#000000" stroke-miterlimit="10" width="49.3977" height="379.0748"/>
<path fill="none" stroke="#000000" stroke-miterlimit="10" d="M955.442,1613.5902l56.3782,242.6942
	c3.2214,14.4965,5.3693,25.236,8.0541,37.5851h3.2214c-2.1478-17.7189-4.2955-35.4379-5.3693-53.6934l-2.1477-35.4377
	l-2.1478-191.1482h46.7134v379.0748h-55.3046l-62.2841-284.0375h-3.2214l2.6844,32.7531l2.1477,32.7529l4.2957,218.5314h-46.7134
	v-379.0748h53.6934V1613.5902z"/>
<polygon fill="none" stroke="#000000" stroke-miterlimit="10" points="1110.5293,1613.5902 1235.6349,1613.5902 
	1235.6349,1661.3773 1161.5378,1661.3773 1161.5378,1771.9854 1228.1179,1771.9854 1228.1179,1818.6992 1161.5378,1818.6992 
	1161.5378,1944.8781 1236.1715,1944.8781 1236.1715,1992.665 1110.5293,1992.665 "/>
<path fill="none" stroke="#000000" stroke-miterlimit="10" d="M1000.4546,930.9059c32.5093-3.4218,51.9005-19.9615,60.4556-57.0331
	h34.7904v400.3737h-50.7599V970.2594h-44.4861V930.9059z"/>
<path fill="none" stroke="#000000" stroke-miterlimit="10" d="M1133.9264,944.0239c0-12.5474,0-31.5109,9.9808-47.3376
	c9.9808-15.8266,29.9425-28.5164,69.8658-28.5164c8.5551,0,19.1063,0.4277,29.8,2.8515
	c10.6938,2.4238,21.5303,6.8438,30.6555,14.8281c9.9808,8.8402,14.9712,18.8211,17.4664,31.8676
	c2.4951,13.0464,2.4951,29.1583,2.4951,50.2604c0,34.5052,0,52.8986-6.2737,71.7908c-6.2737,18.8922-18.8212,38.2833-43.916,74.7847
	c-13.1177,18.8209-25.2372,36.2162-35.0042,54.5383c-9.7668,18.3221-17.1812,37.5712-20.8883,60.0996h54.1816h54.1816v22.5278
	v22.5278h-80.1315l-79.2855-0.0394l-0.8461,0.0394c0-36.7865,2.2811-63.7347,12.8322-92.7505s29.3719-60.099,62.4515-105.1553
	c12.547-17.3953,20.8168-28.8019,25.9497-41.2778s7.1292-26.0212,7.1292-47.6935v-19.9619v-19.9619
	c0-6.8438,0-16.8246-3.7784-25.0944c-3.7784-8.2698-11.3353-14.8287-26.449-14.8287c-15.6841,0-23.526,5.2755-27.447,12.1195
	s-3.921,15.2565-3.921,21.5303v31.9383v31.9382h-24.5245h-24.5244v-30.5125V944.0239z"/>
<polygon fill="none" stroke="#000000" stroke-miterlimit="10" points="1346.0565,838.0735 1356.6154,870.5702 1390.7843,870.5702 
	1363.141,890.6542 1373.6998,923.1509 1346.0565,903.0669 1318.4132,923.1509 1328.9719,890.6542 1301.3286,870.5702 
	1335.4977,870.5702 "/>
<circle fill="none" stroke="#000000" stroke-miterlimit="10" cx="688.6038" cy="362.7344" r="88.5215"/>
<circle fill="none" stroke="#000000" stroke-miterlimit="10" cx="465.2747" cy="491.6736" r="88.5215"/>
<circle fill="none" stroke="#000000" stroke-miterlimit="10" cx="465.2747" cy="749.5519" r="88.5215"/>
<circle fill="none" stroke="#000000" stroke-miterlimit="10" cx="688.6038" cy="878.4911" r="88.5215"/>
<circle fill="none" stroke="#000000" stroke-miterlimit="10" cx="911.9331" cy="749.5519" r="88.5215"/>
<circle fill="none" stroke="#000000" stroke-miterlimit="10" cx="911.9331" cy="491.6736" r="88.5215"/>
<circle fill="none" stroke="#000000" stroke-miterlimit="10" cx="688.6038" cy="620.6129" r="88.5215"/>
<polygon fill="none" stroke="#000000" points="240.0667,2605.3735 438.492,2208.5234 495.1849,2208.5234 693.6102,2605.3735 
	636.9173,2605.3735 580.2242,2491.9878 353.4527,2491.9878 296.7598,2605.3735 "/>
<polygon fill="none" stroke="#000000" points="381.7991,2435.2949 551.8777,2435.2949 466.8384,2265.2163 "/>
<polygon fill="none" stroke="#000000" points="892.0352,2491.9878 1033.7676,2208.5234 1090.4604,2208.5234 1232.1926,2491.9878 
	1175.4998,2491.9878 1147.1533,2435.2949 977.0748,2435.2949 948.7283,2491.9878 "/>
<polygon fill="none" stroke="#000000" points="1005.4212,2378.6021 1118.8069,2378.6021 1062.114,2265.2163 "/>
<g>
	<line fill="none" stroke="#000000" x1="438.492" y1="2166.0037" x2="438.492" y2="2109.3108"/>
	<line fill="none" stroke="#000000" x1="523.5313" y1="2166.0037" x2="523.5313" y2="2109.3108"/>
	<polyline fill="none" stroke="#000000" points="523.5313,2137.6572 466.8384,2137.6572 466.8384,2109.3108 	"/>
	<rect x="381.7991" y="2095.1375" fill="none" stroke="#000000" width="170.0786" height="85.0394"/>
</g>
<rect x="240.0667" y="2208.5234" fill="none" stroke="#000000" width="453.5432" height="396.8502"/>
<rect x="892.0352" y="2208.5234" fill="none" stroke="#000000" width="340.1575" height="283.4647"/>
<g>
	<line fill="none" stroke="#000000" x1="357.9276" y1="2662.0664" x2="342.7747" y2="2701.8428"/>
	<line fill="none" stroke="#000000" x1="357.9276" y1="2662.0664" x2="373.0804" y2="2701.8428"/>
	<line fill="none" stroke="#000000" x1="348.4571" y1="2688.584" x2="367.398" y2="2688.584"/>
	<polyline fill="none" stroke="#000000" points="386.3392,2699.9485 384.4449,2701.8428 382.5508,2699.9485 384.4449,2698.0544 
		386.3392,2699.9485 386.3392,2703.7368 384.4449,2707.5249 382.5508,2709.4192 	"/>
	<polyline fill="none" stroke="#000000" points="435.5858,2669.6428 439.3741,2667.7488 445.0562,2662.0664 445.0562,2701.8428 	"/>
	<polyline fill="none" stroke="#000000" points="492.4088,2667.7488 490.5147,2663.9607 484.8323,2662.0664 481.0443,2662.0664 
		475.3619,2663.9607 471.5738,2669.6428 469.6795,2679.1135 469.6795,2688.584 471.5738,2696.1604 475.3619,2699.9485 
		481.0443,2701.8428 482.9383,2701.8428 488.6207,2699.9485 492.4088,2696.1604 494.303,2690.478 494.303,2688.584 
		492.4088,2682.9016 488.6207,2679.1135 482.9383,2677.2192 481.0443,2677.2192 475.3619,2679.1135 471.5738,2682.9016 
		469.6795,2688.584 	"/>
	<polyline fill="none" stroke="#000000" points="511.3499,2699.9485 509.4559,2701.8428 507.5616,2699.9485 509.4559,2698.0544 
		511.3499,2699.9485 511.3499,2703.7368 509.4559,2707.5249 507.5616,2709.4192 	"/>
	<polyline fill="none" stroke="#000000" points="530.2908,2669.6428 534.0792,2667.7488 539.7615,2662.0664 539.7615,2701.8428 	"/>
	<polyline fill="none" stroke="#000000" points="581.4317,2662.0664 562.4908,2688.584 590.9022,2688.584 	"/>
	<line fill="none" stroke="#000000" x1="581.4317" y1="2662.0664" x2="581.4317" y2="2701.8428"/>
</g>
<g>
	<line fill="none" stroke="#000000" x1="954.1502" y1="2662.0664" x2="938.9974" y2="2701.8428"/>
	<line fill="none" stroke="#000000" x1="954.1502" y1="2662.0664" x2="969.303" y2="2701.8428"/>
	<line fill="none" stroke="#000000" x1="944.6797" y1="2688.584" x2="963.6207" y2="2688.584"/>
	<polyline fill="none" stroke="#000000" points="982.5618,2699.9485 980.6675,2701.8428 978.7735,2699.9485 980.6675,2698.0544 
		982.5618,2699.9485 982.5618,2703.7368 980.6675,2707.5249 978.7735,2709.4192 	"/>
	<polyline fill="none" stroke="#000000" points="1031.8083,2669.6428 1035.5964,2667.7488 1041.2788,2662.0664 1041.2788,2701.8428 
			"/>
	<polyline fill="none" stroke="#000000" points="1065.9021,2671.5371 1065.9021,2669.6428 1067.7964,2665.8547 1069.6904,2663.9607 
		1073.4785,2662.0664 1081.0549,2662.0664 1084.8433,2663.9607 1086.7373,2665.8547 1088.6313,2669.6428 1088.6313,2673.4312 
		1086.7373,2677.2192 1082.9492,2682.9016 1064.0081,2701.8428 1090.5256,2701.8428 	"/>
	<polyline fill="none" stroke="#000000" points="1107.5725,2699.9485 1105.6785,2701.8428 1103.7842,2699.9485 1105.6785,2698.0544 
		1107.5725,2699.9485 1107.5725,2703.7368 1105.6785,2707.5249 1103.7842,2709.4192 	"/>
	<polyline fill="none" stroke="#000000" points="1126.5134,2669.6428 1130.3018,2667.7488 1135.9841,2662.0664 1135.9841,2701.8428 
			"/>
	<polyline fill="none" stroke="#000000" points="1170.0779,2662.0664 1164.3955,2663.9607 1160.6074,2669.6428 1158.7134,2679.1135 
		1158.7134,2684.7957 1160.6074,2694.2664 1164.3955,2699.9485 1170.0779,2701.8428 1173.866,2701.8428 1179.5483,2699.9485 
		1183.3367,2694.2664 1185.2307,2684.7957 1185.2307,2679.1135 1183.3367,2669.6428 1179.5483,2663.9607 1173.866,2662.0664 
		1170.0779,2662.0664 	"/>
</g>
<g>
	<line fill="none" stroke="#000000" stroke-miterlimit="10" x1="4631.4663" y1="2674.4109" x2="4631.4663" y2="2702.7573"/>
	<polyline fill="none" stroke="#000000" stroke-miterlimit="10" points="4659.813,2702.7573 4659.813,2674.4109 
		4688.1592,2674.4109 4688.1592,2702.7573 4659.813,2702.7573 4688.1592,2674.4109 	"/>
	<polyline fill="none" stroke="#000000" stroke-miterlimit="10" points="4702.3325,2702.7573 4702.3325,2674.4109 
		4730.6792,2674.4109 4730.6792,2702.7573 4702.3325,2702.7573 4730.6792,2674.4109 	"/>
	<polyline fill="none" stroke="#000000" stroke-miterlimit="10" points="4744.8521,2702.7573 4744.8521,2674.4109 
		4773.1987,2674.4109 4773.1987,2702.7573 4744.8521,2702.7573 4773.1987,2674.4109 	"/>
	<polyline fill="none" stroke="#000000" stroke-miterlimit="10" points="4801.5449,2702.7573 4801.5449,2688.584 
		4801.5449,2674.4109 4829.8916,2674.4109 4829.8916,2688.584 4801.5449,2688.584 	"/>
	<line fill="none" stroke="#000000" stroke-miterlimit="10" x1="4844.0649" y1="2674.4109" x2="4872.4111" y2="2674.4109"/>
	<line fill="none" stroke="#000000" stroke-miterlimit="10" x1="4858.2383" y1="2674.4109" x2="4858.2383" y2="2702.7573"/>
</g>
<path fill="none" stroke="#000000" stroke-miterlimit="10" d="M2913.2559,808.678c13.1406,32.0114,39.2253,53.3431,71.9775,63.7088
	c10.5659,3.3431,46.6028,6.827,33.1348,58.4553c-15.282,58.592,40.126,129.1002,106.4819,131.7385
	c59.5652,2.3696,103.6116-57.987,103.3606-116.0694c-0.0542-13.0673-11.0615-37.1235-8.1096-48.3168
	c10.3755-39.3071,47.9854-11.5393,75.8577-12.0032c24.5972-0.4093,49.8677-14.482,63.1399-35.1906
	c38.793-60.552-7.6318-156.1219-58.3547-191.5629c-23.3191-16.292-51.811-31.3427-81.2705-27.4539
	c-34.4446,4.5482-48.3447,46.8615-71.9688,67.2792c-41.8213,36.1367-60.2788-5.1716-94.2141-25.598
	c-26.2117-15.7737-54.8894-18.0023-82.9119-5.6171C2917.6863,691.3398,2891.4287,755.4943,2913.2559,808.678z"/>
<path fill="none" stroke="#000000" stroke-miterlimit="10" d="M3093.3979,776.212c32.4116,9.6015,65.6782-1.4693,88.3604-24.9205
	c17.4297-18.0205,19.072-42.427,53.7666-43.0046c27.3999-0.4547,61.9436,42.5999,67.2063,65.1187
	c12.3127,52.6699-41.5906,34.1625-68.4524,35.941c-15.0962,1.0003-30.2742,6.7861-42.541,15.4369
	c-28.2632,19.9354-36.4688,50.1957-31.5613,83.1392c3.7849,25.4028,15.9424,64.814-14.2449,80.442
	c-44.3464,22.9648-67.3247-16.6104-66.1101-49.6406c0.0134-0.3547,7.2952-43.1728,4.3616-57.5958
	c-2.9834-14.6729-11.1033-30.3649-21.2542-41.4444c-11.6392-12.7037-25.5308-16.7245-41.3672-21.6275
	c-35.9053-11.1024-79.8965-42.1906-41.3313-83.526C3014.8345,697.4391,3058.594,765.9009,3093.3979,776.212z"/>
<path fill="none" stroke="#000000" stroke-miterlimit="10" d="M4030.917,1008.669c7.8462,23.9651,24.939,45.4201,47.3076,57.3503
	c32.0244,17.0881,56.7358,1.9557,88.8984,5.9584c49.0396,6.1036,33.8394,62.3579,51.9141,97.5209
	c13.8589,26.9539,36.7686,51.2098,65.5146,61.5618c70.1899,25.2753,115.0776-24.2292,119.249-91.3624
	c1.8374-29.5916-22.5107-63.7316-24.5112-75.7209c-5.3125-31.8522,47.5659-48.4218,58.0864-76.7761
	c8.0186-21.6091,7.896-54.7669-4.2432-74.4201c-28.6729-46.4114-114.6416-75.7574-151.8882-29.3868
	c-35.855,44.642-75.3525,5.6897-106.5674-12.5353c-23.4243-13.6769-53.6299-8.3187-79.5059-0.4047
	C4037.7036,888.024,4012.9832,953.884,4030.917,1008.669z"/>
<path fill="none" stroke="#000000" stroke-miterlimit="10" d="M4159.8359,930.6604c19.167,7.8278,33.5488,24.9159,52.8745,33.0754
	c25.6299,10.8207,54.2749,10.5474,78.5361-3.907c13.8223-8.2325,26.1211-32.4525,42.6494-33.7807
	c34.6172-2.7791,47.1392,30.6742,24.5796,51.9056c-22.3232,21.0135-43.564,31.4517-46.7568,66.0651
	c-2.625,28.4498,33.1577,62.1165,29.8047,89.093c-3.8755,31.1973-51.3374,39.9756-62.5938,17.9613
	c-8.5015-12.326-12.9038-25.9437-13.2178-40.8531c-2.0918-15.8419-2.0649-30.8606-8.915-45.7521
	c-11.9023-25.88-39.2104-46.0565-66.0957-54.6393c-37.916-12.103-101.6194,28.5547-104.4988-36.5504
	C4084.3469,931.3698,4126.9468,917.2244,4159.8359,930.6604z"/>
<path fill="none" stroke="#000000" stroke-miterlimit="10" d="M2521.6846,1068.4617
	c-17.2703-38.4791-56.6633-59.1514-18.9529-99.4042c22.2642-23.765,48.3032-31.5063,54.8308-67.4928
	c11.1025-61.1846-50.6235-113.1902-105.5129-123.5468c-64.5227-12.1716-80.4875,36.7507-90.7717,89.2657
	c-13.8269,70.5994-52.606,10.7794-76.585-2.6788c-47.5117-26.6669-92.9861,6.1084-108.6917,29.5007
	c-31.0745,46.2841-13.1677,109.5287,33.7307,137.0189c25.9163,15.1917,64.4319,4.1346,87.0325,20.4812
	c29.291,21.1863,0.2551,75.5253,16.4648,106.0721c26.3984,49.7404,106.3452,72.5276,155.7268,51.1051
	C2522.7166,1185.4542,2545.4451,1121.4043,2521.6846,1068.4617z"/>
<path fill="none" stroke="#000000" stroke-miterlimit="10" d="M2452.9817,1142.1675c-28.978,27.4946-84.5496,8.1143-83.699-33.4485
	c0.3916-19.1077,6.5085-32.7937,1.4602-52.438c-7.7231-30.033-30.7559-54.5847-59.7424-65.5052
	c-15.3555-5.7853-30.292-4.262-45.7974-7.4139c-13.627-2.77-68.5347-11.2028-52.3376-52.7564
	c21.1995-54.3798,61.4387-2.638,75.8801,5.8402c28.8364,16.9289,45.9563,32.266,76.2666,20.8678
	c32.1885-12.1076,41.3396-36.4642,48.2849-68.0662c3.7065-16.8743-1.2871-40.7394,17.2744-50.2592
	c18.6575-9.5653,48.6492,3.4114,57.3274,16.2057c22.874,33.7123-7.8372,53.093-32.6252,73.4014
	c-27.2759,22.3506-46.261,53.1064-35.0312,89.061C2433.4922,1060.0562,2497.1689,1100.2454,2452.9817,1142.1675z"/>
<path fill="none" stroke="#000000" stroke-miterlimit="10" d="M3235.3792,1258.2825
	c18.1521-24.5701,18.1123-49.6223,14.8235-78.8866c-0.4133-3.6932-1.7964-6.6316-2.761-9.5334
	c-12.9905-39.1202-44.6057-69.4532-89.3381-65.3324c-28.6553,2.6382-54.7761,18.5663-71.1187,42.286
	c-11.9482,17.3428-11.584,38.7385-18.3481,44.5647c-14.2183,12.2484-41.2629-9.8157-53.343-15.0508
	c-50.5596-21.9047-110.0696-5.4396-124.7249,53.2429c-13.9817,56.0038,28.7007,107.4821,81.0337,121.1545
	c11.9253,3.1155,24.2703,3.7797,36.5188,3.8524c30.6375,0.1818,36.4238,0.8094,31.7388,34.1943
	c-3.594,25.5938-7.4829,47.6488,5.8987,72.3372c23.5017,43.3638,103.625,56.5587,144.6746,31.2833
	c47.1433-29.0227,44.519-101.0824,23.1914-144.5691c-11.5034-23.4603-27.3079-29.4644-5.7495-61.7982
	C3214.7568,1275.7073,3227.7249,1268.6345,3235.3792,1258.2825z"/>
<path fill="none" stroke="#000000" stroke-miterlimit="10" d="M3142.9431,1442.0312
	c-41.5173,10.2428-45.6787-19.6853-39.0154-48.4401c6.4404-27.7767,8.7463-50.4274-10.147-74.5066
	c-18.0889-23.0508-42.2449-26.6666-69.813-26.7216c-22.9282-0.0454-62.8218,4.421-71.2544-26.4349
	c-17.9297-65.6055,59.7468-21.9094,71.1819-17.4155c25.6982,10.1019,53.9839,13.2631,78.0002-3.3158
	c10.0559-6.9407,16.4507-15.6371,21.8225-26.3533c2.8335-5.6534,4.0798-11.8756,5.3118-18.0841
	c7.1553-36.0321,43.874-48.5854,58.7283-7.4957c1.9109,5.2898,1.7148,10.0156,2.1333,14.4365
	c2.8977,30.6102-44.2415,46.1565-53.4023,78.3314c-8.6147,30.2604,3.7522,51.3236,15.5833,77.6724
	C3163.406,1388.9518,3185.3564,1431.5652,3142.9431,1442.0312z"/>
<path fill="none" stroke="#000000" stroke-miterlimit="10" d="M2328.3066,2126.1482c-15.5918-20.7129-27.8862-21.05-16.8059-52.3604
	c4.7576-13.4404,20.0129-30.9014,24.1606-67.5431c5.9536-52.629-10.3337-104.621-91.6899-120.1625
	c-46.5798-8.9012-106.9092,6.113-122.8147,62.4672c-9.8335,34.8494,11.7759,56.7953,0.4277,65.3414
	c-20.5862,15.5055-41.9041-24.8751-93.7778-20.7131c-47.6077,3.8204-69.3895,63.6726-55.2124,109.374
	c6.9177,22.3003,22.7734,40.7173,43.855,50.564c28.6318,13.3767,101.8379,3.2156,130.4512,11.8484
	c31.502,9.5015,22.9326,50.9138,47.0254,83.0713c15.3508,20.49,41.1033,30.9331,66.033,33.1208
	c48.7717,4.2847,91.4177-25.4524,95.2107-76.3757C2357.3115,2175.9751,2345.281,2148.6946,2328.3066,2126.1482z"/>
<path fill="none" stroke="#000000" stroke-miterlimit="10" d="M2257.5161,2219.0574
	c-18.7844-7.5366-19.2258-37.9744-33.7444-60.9893c-14.9688-23.7239-36.7368-40.8806-53.2292-47.3938
	c-28.595-11.2939-90.2212,7.6685-122.5234-10.6702c-27.8723-15.8237-30.3235-50.4961,1.3281-55.7719
	c26.6306-4.4391,63.6724,28.0409,78.0181,28.7865c25.3843,1.3191,44.542-14.177,49.0039-39.3888
	c3.7837-21.3909-16.8606-36.0321-12.0305-60.8253c7.7549-39.807,53.1155-34.5447,71.9592-29.5688
	c20.886,5.5128,40.8398,32.2977,32.7527,70.2811c-3.1064,14.5913-25.3889,57.7008-27.1675,67.9432
	c-7.623,43.8962,29.5872,58.6372,45.647,93.3684C2299.5569,2200.8276,2288.1765,2231.3604,2257.5161,2219.0574z"/>
<path fill="none" stroke="#000000" stroke-miterlimit="10" d="M3667.8862,2173.9375c-4.0115-32.521-21.6411-60.9436-44.8376-83.4438
	c-29.4922-28.6094-73.7244-54.9261-63.3906-101.7831c14.0774-63.8318-10.8799-105.5444-57.668-116.6288
	c-31.1702-7.3822-81.5613-10.4657-106.3411,41.2357c-18.7573,39.1338,4.7258,69.0713-18.0244,87.4785
	c-21.3042,17.2333-42.1868-2.7972-71.3545-0.9822c-23.5386,1.4646-43.7412,19.6669-56.0183,39.9075
	c-24.9338,41.1122-19.6353,102.1425,10.7349,139.1749c29.0317,35.4045,89.134,44.6921,128.231,24.0337
	c24.2427-12.8083,27.4763-52.9387,65.6282-40.6621c26.2209,8.4373-4.0071,59.4238,23.0505,95.8335
	C3539.0132,2340.3481,3679.217,2265.7644,3667.8862,2173.9375z"/>
<path fill="none" stroke="#000000" stroke-miterlimit="10" d="M3569.5557,2228.1626c-41.9448,9.9246-41.363-28.5996-45.4297-56.8953
	c-4.6023-32.052-22.3186-62.8579-54.188-74.3699c-33.2627-12.0164-58.1516,3.1477-80.8521,25.7573
	c-22.6096,22.5234-61.6843,44.2964-84.8176,9.4058c-20.6895-31.2017-2.5518-83.6125,39.2441-79.1318
	c33.5525,3.5977,60.5564,22.5508,84.74-14.691c8.9597-13.7999,6.3538-63.0673,7.1091-70.8499
	c2.0833-21.4047,22.5779-40.8351,43.3728-37.6648c52.5969,8.0184,27.7673,64.9321,23.7793,79.6962
	c-4.5942,17.0061-4.2031,31.9974,2.3008,48.3577c16.0515,40.3806,60.4429,54.3708,85.4043,87.5513
	C3612.5059,2174.9519,3611.5095,2218.2339,3569.5557,2228.1626z"/>
<path fill="none" stroke="#000000" stroke-miterlimit="10" d="M2652.6538,884.9857c0.7456,0.8505,1.3647,1.7418,2.2288,2.5561
	c56.7817,53.5842-25.6846,87.1462-56.6819,118.4117c-18.9712,19.1348-32.1338,42.1633-32.957,69.608
	c-1.7056,56.7361,58.687,101.4147,111.9529,102.238c32.457,0.5001,57.6096-14.118,78.0273-38.7474
	c6.9138-8.3372,18.4028-31.9567,28.4087-36.7051c21.9277-10.4069,47.9941,20.0035,66.8474,27.0262
	c60.7249,22.6237,113.8357-33.976,126.8533-89.2794c12.522-53.1887-22.3826-107.2957-76.6897-116.4742
	c-27.6584-4.6758-54.1978,11.7394-60.4653-31.7701c-1.8696-12.9581,6.2312-31.9611,6.7913-45.4242
	c1.187-28.5682-2.8245-56.6907-21.2415-79.2095C2738.4175,660.4564,2540.0139,788.1469,2652.6538,884.9857z"/>
<path fill="none" stroke="#000000" stroke-miterlimit="10" d="M2769.7781,804.2615c22.9102,21.5364,16.2971,43.2549,11.3396,72.5414
	c-5.5945,33.0165-2.3242,63.0814,24.3152,86.5414c27.9041,24.5701,98.0845,7.3591,111.4302,41.6856
	c4.9302,12.681-4.7534,43.7734-15.3962,52.6745c-35.0403,29.2957-41.4585,1.7325-61.9985-7.8687
	c-15.6826-7.332-27.5581-15.1371-45.7883-14.8005c-32.3752,0.5913-55.062,24.2791-73.4238,48.1945
	c-8.5693,11.157-12.6531,19.1075-25.8071,26.0938c-14.5771,7.7416-48.0122,9.7563-57.6318-11.9578
	c-8.8286-19.9216,12.9124-53.9797,27.3401-65.9327c7.332-6.0764,16.4873-10.1292,24.0283-16.0237
	c57.4595-44.8967,57.405-118.9396,10.8389-169.2624c-1.6873-2.5377-3.6929-4.9987-6.4131-7.2319
	c-16.3833-13.4448-4.9714-32.707,6.3494-42.2903C2722.103,777.0306,2751.2305,786.8232,2769.7781,804.2615z"/>
<path fill="none" stroke="#000000" stroke-miterlimit="10" d="M3463.7515,2348.1987
	c-12.7212-36.0913-48.9448-104.7891-116.5103-99.2812c-33.8672,2.761-53.8433,24.7339-64.1125,55.4167
	c-7.6277,22.792-1.0789,57.0637-41.0312,29.8965c-14.9187-10.1428-15.1555-44.4282-40.2168-58.2961
	c-58.1914-32.2024-101.4326-3.302-127.5994,47.7031c-30.5508,59.5518-20.1987,107.6047,36.2239,145.365
	c20.1353,13.4768,43.5452,20.2083,61.4248,22.8328c18.8943,2.7698,25.6575,19.1938,12.9355,41.1577
	c-13.2397,22.8557-18.2971,45.3015-9.8376,71.1816c17.7112,54.189,93.9417,90.4485,146.8794,66.5515
	c26.6985-12.0532,48.6997-36.082,55.4038-63.6682c7.7319-31.8198-26.6445-95.051-1.9241-115.9739
	c21.4319-18.1433,44.7151-21.7412,66.9705-46.0381C3477.9841,2406.1396,3471.9937,2371.5818,3463.7515,2348.1987z"/>
<path fill="none" stroke="#000000" stroke-miterlimit="10" d="M3311.1326,2553.4153c1.8599,12.5081,6.2305,33.7578-0.3328,45.0742
	c-11.3745,19.6216-40.9934,21.9963-56.9634,7.8325c-28.7451-25.4888-9.1965-41.3442,4.0439-65.2141
	c14.3687-25.9028,12.9395-63.4817-9.6833-84.4495c-30.6926-28.4409-82.8669-18.6392-113.6177-48.4355
	c-28.7737-27.877-2.5293-101.7783,42.491-71.4729c17.5652,11.8257,25.593,38.9792,44.2097,52.2922
	c27.6396,19.7581,63.3989,21.9231,90.0068-1.2007c15.4146-13.3999,19.03-28.8865,25.6155-46.3159
	c9.0557-23.9656,42.4685-33.4851,63.5,1.3281c25.9302,42.9138-2.9609,75.8027-33.7761,87.0188
	c-16.1372,5.8765-32.5564,11.1616-45.165,23.5059C3290.1643,2484.0168,3305.624,2516.3191,3311.1326,2553.4153z"/>
<path fill="none" stroke="#000000" stroke-miterlimit="10" d="M2514.4524,1552.8285
	c-16.9978-23.5782-50.314-40.3666-79.9829-37.5239c-24.5881,2.3561-36.8413,18.7078-57.3042,27.8448
	c-50.8459,22.7101-52.0881-18.0162-91.499-33.6713c-21.5093-8.5417-46.1201-4.9214-67.4385,2.0559
	c-48.8718,16.0011-81.9795,60.6704-69.7898,113.1992c6.4041,27.6036,25.3115,51.7828,48.1672,67.9159
	c11.2344,7.9324,28.8,12.5306,39.052,21.2227c32.4338,27.4994,9.2834,41.9495,6.8362,70.3855
	c-10.2842,119.4941,197.4666,114.3274,202.2471-4.0481c1.3645-33.7621-22.5693-45.6971-15.2964-67.0608
	c5.4485-16.0009,43.6733,0.4912,76.1482-29.4644C2537.9722,1653.8157,2532.8052,1578.2948,2514.4524,1552.8285z"/>
<path fill="none" stroke="#000000" stroke-miterlimit="10" d="M2434.0378,1653.202c-6.2268,0.2909-36.7417,2.9293-45.4744,8.014
	c-20.6179,12.0032-26.3127,33.3619-23.688,56.0221c2.4377,21.0632,22.9556,50.7004,6.9453,71.4138
	c-17.7119,22.9143-41.3313,26.162-63.6089,11.13c-24.9658-16.8516,11.1482-79.4552-3.0747-103.384
	c-14.9504-25.1569-38.8022-32.9753-62.5264-47.0208c-31.6606-18.7438-54.1116-78.4774,2.4746-82.0703
	c22.9873-1.4601,35.7727,20.1311,50.6592,32.3615c18.8621,15.5006,42.0081,23.1378,66.5835,19.7537
	c20.3401-2.7972,63.5767-46.8431,86.0225-36.9186C2478.2607,1595.7335,2481.4766,1650.9911,2434.0378,1653.202z"/>
<path fill="none" stroke="#000000" stroke-miterlimit="10" d="M4523.1895,1745.1741c9.7793,30.051,38.1694,47.3116,67.4746,55.0443
	c39.0249,10.2925,88.8789,19.2306,134.5308-33.4714c19.4536-22.4596,20.0225-50.6821,4.7446-75.7802
	c-16.4517-27.0219-62.7539-54.9575-58.4058-81.0835c3.9346-23.6377,62.4536-55.1714,72.9097-79.7959
	c12.8037-30.1511,8.8794-65.1552-9.2915-92.1497c-27.6631-41.099-91.9224-60.1338-134.0171-28.8453
	c-29.9639,22.2729-30.0283,61.7844-54.1567,87.9467c-21.4868,23.292-37.9653,18.3434-68.4077,1.2782
	c-8.2778-4.6394-34.0171-14.5137-43.6001-15.328c-49.0093-4.1799-108.0049,93.2184-86.415,134.3217
	c29.6187,56.3815,96.584,32.6027,142.6865,47.3804C4534.4062,1678.5177,4510.5767,1706.4084,4523.1895,1745.1741z"/>
<path fill="none" stroke="#000000" stroke-miterlimit="10" d="M4438.2852,1549.1307c19.0576-12.6578,32.3032,7.7188,54.3442,18.2522
	c28.5493,13.6453,67.1973,0.9646,88.0474-22.2869c25.7666-28.7321,42.9634-110.5568,90.5342-79.3232
	c52.7339,34.6177-44.46,88.347-55.8354,127.2219c-8.2729,28.2863,4.7891,50.0818,22.6504,70.6088
	c18.9033,21.7228,51.2559,48.6355,24.5981,72.7147c-22.7876,20.5814-60.2974,9.5879-79.9561-10.6797
	c-27.5039-28.3588-6.8306-64.2592-26.084-92.741c-17.1479-25.3706-45.8799-23.6333-74.2891-22.7188
	c-13.5488,0.4363-34.8857,5.4803-46.5654-2.5107C4414.9849,1593.464,4418.5684,1562.2302,4438.2852,1549.1307z"/>
<path fill="none" stroke="#000000" stroke-miterlimit="10" d="M2796.1047,1570.9948c12.4939-32.266,8.2461-65.6962-8.3826-95.7563
	c-5.3623-9.697-29.1143-37.0236,16.1826-65.2188c51.4053-31.9976,59.7246-121.2816,13.3948-168.8574
	c-41.5901-42.7091-115.0779-29.223-154.8665,13.0903c-8.9514,9.5195-17.5208,34.5491-27.3677,40.6393
	c-34.5762,21.3817-42.7588-24.6475-63.2988-43.4915c-18.1299-16.6288-46.1477-23.8104-70.0266-17.9159
	c-69.8171,17.2382-101.8962,118.5298-89.4795,179.1503c5.7083,27.8723,16.019,58.3962,40.0754,75.8436
	c28.1226,20.4042,67.3247-0.7367,98.5173,0.7097c55.2131,2.5607,40.1802,45.2289,50.7458,83.4073
	c8.1648,29.4828,27.4402,50.8369,56.2949,61.1294C2712.1511,1653.0839,2775.3506,1624.6016,2796.1047,1570.9948z"/>
<path fill="none" stroke="#000000" stroke-miterlimit="10" d="M2643.0571,1470.5901
	c-16.9111-29.2731-48.6672-44.1282-81.2561-42.7227c-25.0476,1.0825-43.0325,17.6613-68.6072-5.7946
	c-20.1948-18.5253-15.6287-73.5331-3.9529-93.496c27.3086-46.684,53.6841,3.8345,74.3977,21.0319
	c11.6438,9.665,26.6348,15.91,41.4851,18.0752c34.2222,4.9849,61.0022-11.3256,80.115-38.6064
	c14.7363-21.0361,33.0342-57.9958,65.6914-48.5627c47.9805,13.8545,37.4197,58.3827,13.8093,81.5111
	c-0.2554,0.2501-35.0046,26.3031-42.8003,38.7883c-7.9324,12.7036-12.8398,29.6733-13.0991,44.6969
	c-0.2957,17.2292,7.0132,29.7051,15.1365,44.1598c18.4119,32.7661,28.937,85.5906-27.4897,89.0475
	C2645.8584,1581.8065,2661.2139,1502.019,2643.0571,1470.5901z"/>
<path fill="none" stroke="#000000" stroke-miterlimit="10" d="M4496.9004,1418.6934c27.8853-6.1313,51.1597-27.9951,70.1406-48.108
	c20.3765-21.5911,35.354-38.3018,66.8511-27.1582c10.6348,3.7616,23.3374,8.6237,31.2427,11.1208
	c69.0078,21.8367,124.4116-41.7585,134.8901-91.1672c10.0112-47.2028-7.6816-100.764-56.3896-114.5048
	c-45.1245-12.7307-91.8267,11.312-104.6807-51.6326c-5.7812-28.3181-0.4316-57.1772-21.0498-81.1927
	c-32.8022-38.2108-108.1416-23.5422-137.7012,11.5298c-18.7852,22.2871-22.6558,52.9746-21.9736,81.229
	c0.8735,36.3684,21.8774,57.0681,30.3462,89.2841c11.4482,43.5687-47.1157,35.6136-69.4487,58.874
	c-17.5742,18.3073-20.6943,46.9072-19.5166,71.1499C4402.0439,1378.4814,4440.5552,1431.0831,4496.9004,1418.6934z"/>
<path fill="none" stroke="#000000" stroke-miterlimit="10" d="M4457.4111,1348.3942
	c-26.1982-38.7111,27.6592-52.1879,36.3599-55.5582c13.2905-5.1533,24.4619-10.2974,34.8223-20.5083
	c22.7554-22.4325,31.6021-56.5906,22.0278-87.0691c-5.0078-15.9421-79.9102-125.9032,7.5908-129.4463
	c32.1479-1.3009,18.9985,83.5533,36.8687,109.2106c21.9639,31.5336,57.6055,38.0105,93.769,39.8115
	c24.3696,1.2146,47.0752,1.9059,51.3867,30.9016c5.1851,34.854-27.9224,63.09-57.6772,60.9023
	c-34.6274-2.5469-57.0825-38.2833-92.9136-27.7448C4556.4697,1278.6453,4492.2705,1399.8999,4457.4111,1348.3942z"/>
<path fill="none" stroke="#000000" stroke-miterlimit="10" d="M3347.4963,1149.2085c23.8477,8.196,51.2688,7.5001,74.2795-3.1429
	c32.9434-15.2368,35.7769-44.0779,58.3691-67.3154c34.4446-35.4364,70.1489,10.6204,109.0959,17.4065
	c29.8596,5.2034,63.0222,1.5604,88.6206-15.1276c62.4937-40.7443,50.0818-106.4041-0.9514-150.223
	c-22.4963-19.3168-64.4084-20.4812-75.179-26.1211c-28.6091-14.9732-9.9333-67.1473-26.2034-92.6363
	c-12.4036-19.4304-38.9207-39.3293-61.9211-41.499c-54.3118-5.1214-129.5691,45.7518-115.0457,103.4249
	c13.9817,55.5215-40.9077,63.5358-74.2705,77.4401c-25.0337,10.4339-38.9785,37.7605-48.2761,63.1719
	C3255.3604,1071.0266,3292.9834,1130.4691,3347.4963,1149.2085z"/>
<path fill="none" stroke="#000000" stroke-miterlimit="10" d="M3363.0242,999.3268c17.8022-10.5659,40.1077-11.7302,58.2732-22.2233
	c24.0886-13.9135,41.1497-36.9324,44.2515-64.9956c1.769-15.9922-10.1294-40.4074-1.2188-54.3939
	c18.6616-29.2868,52.8931-19.0984,56.2266,11.7029c3.2979,30.4785-1.187,53.7161,24.498,77.1403
	c21.1082,19.253,69.5437,11.0205,89.0381,29.9597c22.5464,21.9097,0.9236,65.0597-23.4243,60.7615
	c-14.9592-0.6548-28.4766-5.3533-40.5576-14.0997c-13.8999-7.887-25.8616-16.9651-41.8723-20.4812
	c-27.8213-6.1174-60.3838,3.4977-83.4487,19.7672c-32.5208,22.9419-38.5151,98.2762-92.1809,61.3071
	C3318.0632,1059.965,3332.4775,1017.4562,3363.0242,999.3268z"/>
<path fill="none" stroke="#000000" stroke-miterlimit="10" d="M2107.9436,1452.4149
	c33.4531-25.6846,44.4783-68.7848,92.3452-41.3855c28.2588,16.1783,41.8035,39.7253,78.3269,37.7739
	c62.0945-3.3157,98.4541-75.3798,95.8608-131.1788c-3.0471-65.5872-54.3345-69.8311-107.8047-67.7202
	c-71.8867,2.8381-22.6326-48.6947-15.0686-75.1343c14.9819-52.3879-27.4038-89.0654-53.7891-98.9491
	c-52.2061-19.5537-109.6104,12.4672-125.5339,64.4412c-8.801,28.7225,10.8474,63.6447,0.1545,89.4114
	c-13.8545,33.3895-73.4283,17.6796-99.4088,40.5031c-42.3047,37.1692-46.0251,120.213-13.7861,163.3132
	C1994.349,1480.4192,2061.9146,1487.7511,2107.9436,1452.4149z"/>
<path fill="none" stroke="#000000" stroke-miterlimit="10" d="M2020.3698,1402.5787
	c-33.4392-21.8505-27.4084-80.392,13.2268-89.1567c18.6801-4.0298,33.4122-1.2325,51.3558-10.684
	c27.4399-14.4458,46.0154-42.5226,49.9497-73.2511c2.0833-16.2742-2.8474-30.4603-3.3567-46.2704
	c-0.4502-13.8999-4.9167-69.2711,39.2522-63.0991c57.8052,8.0779,16.7473,59.1694,11.8306,75.1797
	c-9.8157,31.9659-20.7908,52.1649-2.7019,79.0232c19.2122,28.527,45.0198,31.8064,77.3721,31.2742
	c17.2744-0.2864,39.343-10.6521,52.8882,5.2081c13.6133,15.9419,7.9048,48.1216-2.5378,59.5195
	c-27.5269,30.0374-53.4661,4.6259-78.95-14.8048c-28.0454-21.3817-62.3494-32.7574-94.7378-13.5311
	C2095.7722,1364.6593,2071.3616,1435.8955,2020.3698,1402.5787z"/>
<path fill="none" stroke="#000000" stroke-miterlimit="10" d="M2021.566,1860.775c24.5699,18.1521,49.6227,18.1162,78.8866,14.8231
	c3.6936-0.4136,6.6316-1.7966,9.5334-2.7612c39.1206-12.9897,69.4534-44.6056,65.3323-89.3385
	c-2.6379-28.6547-18.5662-54.7755-42.2856-71.1178c-17.343-11.9484-38.7383-11.5847-44.5647-18.3484
	c-12.2488-14.2179,9.8152-41.2628,15.0503-53.343c21.905-50.5593,5.4399-110.0699-53.2429-124.725
	c-56.0034-13.9814-107.4817,28.7004-121.1541,81.0337c-3.1156,11.9254-3.7797,24.2703-3.8527,36.5188
	c-0.1816,30.6377-0.8093,36.4236-34.1946,31.7385c-25.5936-3.5934-47.6486-7.4821-72.3368,5.8992
	c-43.3641,23.5015-56.5587,103.6249-31.2836,144.6738c29.0232,47.1436,101.0824,44.519,144.5695,23.1919
	c23.4604-11.5028,29.4642-27.3083,61.7981-5.749C2004.1365,1840.1525,2011.2095,1853.1245,2021.566,1860.775z"/>
<path fill="none" stroke="#000000" stroke-miterlimit="10" d="M1837.8174,1768.3387
	c-10.2428-41.5175,19.6853-45.6788,48.4401-39.0157c27.7769,6.4404,50.4274,8.7465,74.5062-10.147
	c23.0511-18.0892,26.667-42.245,26.7216-69.8126c0.0459-22.9283-4.4207-62.8221,26.4353-71.2546
	c65.6051-17.9297,21.9094,59.7469,17.4158,71.1819c-10.1019,25.6982-13.2631,53.9843,3.3157,77.9996
	c6.9408,10.0568,15.6373,16.4513,26.3531,21.823c5.6531,2.8337,11.8757,4.0797,18.0842,5.3123
	c36.032,7.1589,48.5854,43.8734,7.4956,58.7283c-5.2898,1.9104-10.0156,1.7145-14.4363,2.1332
	c-30.6151,2.8971-46.1569-44.2422-78.332-53.4022c-30.2598-8.6147-51.3235,3.7524-77.672,15.5829
	C1890.892,1788.8064,1848.2786,1810.7518,1837.8174,1768.3387z"/>
<path fill="none" stroke="#000000" stroke-miterlimit="10" d="M3692.2524,1483.7212c4.2522-32.4934-5.6997-64.4185-22.5239-92.0087
	c-21.3909-35.0767-57.6279-71.6273-35.895-114.4092c29.6045-58.2778,15.8872-104.9075-26.6404-127.3492
	c-28.3318-14.9504-76.3447-30.5469-113.2769,13.304c-27.9541,33.1935-12.7129,68.057-39.3481,80.1829
	c-24.9387,11.3525-40.1433-13.2676-68.8394-18.8118c-23.1545-4.4709-47.2698,8.0959-64.2227,24.6156
	c-34.4304,33.5623-44.5784,93.9734-24.4429,137.4327c19.2495,41.5447,75.1116,65.5781,118.1343,55.3671
	c26.676-6.3361,39.8484-44.3784,73.7153-22.9419c23.2742,14.7321-18.7576,56.5266-1.6689,98.5533
	C3525.8276,1612.5804,3680.2356,1575.4615,3692.2524,1483.7212z"/>
<path fill="none" stroke="#000000" stroke-miterlimit="10" d="M3583.478,1511.6071c-43.0911-0.8918-32.8892-38.0427-29.7412-66.4563
	c3.5662-32.1838-5.8762-66.442-33.8486-85.5634c-29.1963-19.9583-57.0869-11.5077-84.7227,4.7029
	c-27.5264,16.1466-70.8083,27.4491-84.4714-12.1213c-12.2219-35.3862,18.4563-81.5928,57.8005-66.788
	c31.5835,11.8848,52.9836,36.9918,85.7178,6.9865c12.1299-11.1162,21.937-59.4698,24.6152-66.8153
	c7.3726-20.1992,32.0796-33.8854,51.4199-25.6118c48.9172,20.927,10.6338,69.8173,3.0745,83.1122
	c-8.7056,15.3141-12.0759,29.9281-9.8743,47.3936c5.4302,43.1138,44.9058,67.7708,60.7747,106.1403
	C3638.3816,1470.8403,3626.5835,1512.4987,3583.478,1511.6071z"/>
<path fill="none" stroke="#000000" stroke-miterlimit="10" d="M3885.9658,1893.9869c-0.1726,1.1187-0.4543,2.1649-0.5186,3.3524
	c-4.3616,77.9497-83.1802,36.5417-127.0623,33.0027c-26.8538-2.1697-52.9482,2.6151-74.4614,19.6764
	c-44.4731,35.2726-39.6982,110.243-5.9907,151.4921c20.5408,25.134,47.9314,34.9402,79.9243,34.6721
	c10.8296-0.0911,36.2913-6.5317,46.3748-1.9424c22.092,10.0569,15.6462,49.5862,22.4329,68.5259
	c21.8555,61.0066,99.3545,65.1233,150.0273,39.4248c48.7305-24.7156,67.6023-86.2776,39.6064-133.7122
	c-14.2542-24.1609-43.9138-33.8621-14.6912-66.7061c8.7058-9.7834,28.4553-15.8375,39.1033-24.0881
	c22.6045-17.5066,41.5212-38.7064,46.8657-67.2974C4112.9102,1814.814,3887.3938,1745.4467,3885.9658,1893.9869z"/>
<path fill="none" stroke="#000000" stroke-miterlimit="10" d="M4023.1853,1931.488c-1.6965,31.397-22.5598,40.3439-48.1487,55.4307
	c-28.8462,17.0109-49.7227,38.8885-50.4871,74.3792c-0.7961,37.1694,57.6003,79.7283,39.9624,112.0576
	c-6.5181,11.9441-36.5278,24.584-50.196,22.1821c-44.9834-7.9006-28.05-30.574-33.9487-52.4697
	c-4.5034-16.7153-6.1956-30.824-18.198-44.5464c-21.3225-24.3701-54.0566-26.4438-84.1755-25.0659
	c-14.0552,0.6416-22.7649,2.6475-36.583-2.9109c-15.3137-6.1541-38.406-30.4148-28.0083-51.769
	c9.5386-19.5898,49.5911-24.925,68.03-21.6003c9.3701,1.6918,18.3706,6.077,27.7407,8.0414
	c71.3625,14.9869,127.9309-32.7892,136.3865-100.8235c0.8503-2.9291,1.4414-6.0446,1.3965-9.5652
	c-0.283-21.1909,21.8-24.8838,36.4226-22.4095C4013.2649,1877.4852,4024.5591,1906.0718,4023.1853,1931.488z"/>
<path fill="none" stroke="#000000" stroke-miterlimit="10" d="M3860.3542,2298.8127
	c-27.2446-26.8767-89.8933-72.7693-148.2256-38.2246c-29.2371,17.3154-37.5742,45.8201-33.3679,77.9043
	c3.1255,23.8289,24.0244,51.769-23.7915,44.8467c-17.8523-2.5835-33.0801-33.303-61.6853-34.7949
	c-66.4192-3.4614-92.6309,41.4539-93.8181,98.7717c-1.3831,66.9199,28.9688,105.5808,96.229,114.8184
	c24.0059,3.2976,47.9985-0.9048,65.219-6.3765c18.198-5.781,31.4692,6.0173,29.6504,31.3381
	c-1.8914,26.344,3.3938,48.74,22.333,68.3025c39.6523,40.9578,124.0657,40.1711,161.1926-4.4985
	c18.7258-22.5278,27.9817-53.7661,21.9238-81.5017c-6.9868-31.988-65.5784-73.7783-52.5244-103.416
	c11.3206-25.6982,30.6782-39.1294,40.0391-70.7173C3898.5286,2344.6738,3878.0063,2316.2283,3860.3542,2298.8127z"/>
<path fill="none" stroke="#000000" stroke-miterlimit="10" d="M3813.0334,2550.145c7.1499,10.4292,20.3855,27.6177,19.4443,40.667
	c-1.6331,22.6235-27.218,37.7285-47.7812,31.9885c-37.0046-10.325-26.375-33.1396-24.9246-60.3979
	c1.574-29.5781-16.1699-62.7397-45.6929-71.6775c-40.0483-12.126-82.6565,19.5396-123.3552,6.217
	c-38.0742-12.4622-46.8481-90.3894,6.895-82.8618c20.9683,2.9385,40.0801,23.8333,62.6487,27.645
	c33.5037,5.6582,66.6021-8.0549,80.3928-40.4985c7.991-18.7937,4.4573-34.304,2.7427-52.8564
	c-2.356-25.5117,23.5098-48.6995,57.6687-26.6172c42.103,27.2219,30.5374,69.4395,7.7502,93.0229
	c-11.9351,12.3486-24.3796,24.2925-30.3098,40.9124C3763.7886,2496.9436,3791.8284,2519.207,3813.0334,2550.145z"/>
<path fill="none" stroke="#000000" stroke-miterlimit="10" d="M3140.824,2207.3545c26.2485-12.4854,48.7449-42.2451,51.2732-71.946
	c2.0964-24.6108-11.7852-39.6025-17.1021-61.3708c-13.2129-54.0983,27.0723-48.0032,49.55-83.9674
	c12.2668-19.6259,13.1213-44.4874,10.0837-66.7104c-6.9685-50.9508-44.9651-91.5402-98.8308-88.9794
	c-28.3052,1.3463-55.4856,15.6055-75.4575,35.1908c-9.8203,9.6285-17.498,26.0802-27.8899,34.6085
	c-32.8757,26.9718-42.9363,1.6012-70.4678-5.9132c-115.7102-31.5702-147.9216,173.7333-32.3257,199.6859
	c32.9712,7.3999,49.0044-13.9998,68.7168-3.0063c14.7639,8.2327-8.3232,42.8728,15.3142,80.2012
	C3037.2532,2212.3574,3112.478,2220.8398,3140.824,2207.3545z"/>
<path fill="none" stroke="#000000" stroke-miterlimit="10" d="M3056.52,2110.2244c0.8328-6.1812,3.7122-36.6731,0.2827-46.1746
	c-8.1055-22.4369-28.0959-31.8702-50.8596-33.3621c-21.1592-1.3824-53.9983,13.4769-71.5005-5.9858
	c-19.3621-21.5408-18.3206-45.3563,0.4685-64.5729c21.0593-21.532,76.1621,25.2341,102.2563,15.5372
	c27.4314-10.1927,39.4062-32.2522,57.4819-53.0701c24.1243-27.7815,86.9192-39.1478,80.2917,17.1658
	c-2.6926,22.8783-26.2261,31.579-40.9304,44.0232c-18.635,15.7694-30.3057,37.1736-31.3887,61.9529
	c-0.896,20.5132,34.6724,70.9497,20.8765,91.2537C3105.1147,2164.0496,3050.1794,2157.2908,3056.52,2110.2244z"/>
<path fill="none" stroke="#000000" stroke-miterlimit="10" d="M4321.8472,1471.1995c22.3008-22.3912,24.7349-55.5308,18.271-85.136
	c-8.6099-39.4296-23.3599-87.8834-91.0713-104.5209c-28.8584-7.0911-54.2393,5.2622-69.6255,30.2916
	c-16.5649,26.9539-20.3447,80.897-45.5835,88.925c-22.8374,7.2637-77.5635-30.4692-104.2488-28.5638
	c-32.6748,2.3334-62.0435,21.7729-77.8032,50.2457c-23.9885,43.3457-11.6665,109.2242,35.3582,132.4479
	c33.4761,16.5333,68.6802-1.4104,102.9617,8.1594c30.5242,8.5194,33.6208,25.4434,32.2932,60.3156
	c-0.3594,9.4788,2.5742,36.8916,6.2129,45.7972c18.5981,45.5333,132.1841,53.6936,158.937,15.751
	c36.7046-52.0511-14.9648-100.8322-22.8057-148.6079C4257.3979,1491.5717,4293.0801,1500.0861,4321.8472,1471.1995z"/>
<path fill="none" stroke="#000000" stroke-miterlimit="10" d="M4185.9927,1636.0774c-19.9487-11.2025-7.8408-32.2747-8.5005-56.6904
	c-0.8555-31.6292-29.7505-60.2611-59.9429-68.2341c-37.314-9.8518-117.9883,12.1077-111.8569-44.4692
	c6.8-62.7126,98.9033-0.6594,138.6924-8.2417c28.9502-5.5172,42.4053-27.0763,52.5425-52.3241
	c10.73-26.7216,19.9541-67.7842,53.5303-55.017c28.6997,10.9113,36,49.313,26.9126,76.0437
	c-12.7222,37.4011-54.0933,35.3544-70.6816,65.4601c-14.7778,26.8215-0.1406,51.6052,13.6079,76.4801
	c6.5591,11.8667,20.7686,28.5593,18.9722,42.5952C4236.0747,1636.6278,4206.6333,1647.6665,4185.9927,1636.0774z"/>
<path fill="none" stroke="#000000" stroke-miterlimit="10" d="M2449.7205,2060.7295c31.1106,15.1414,64.7773,13.6951,96.1248-0.3687
	c10.1111-4.5344,39.3206-25.9253,63.6404,21.5681c27.5994,53.8977,115.8787,69.6304,167.1521,27.4309
	c46.0293-37.8828,38.7195-112.2395-0.1274-155.4216c-8.7419-9.7151-32.9709-20.3403-38.2148-30.6602
	c-18.4258-36.2371,28.1267-40.5531,48.6167-59.4563c18.0845-16.6786,27.5769-44.0002,23.6926-68.2889
	c-11.3569-71.0092-109.6196-111.4301-171.0635-104.1118c-28.25,3.3657-59.5291,11.0933-78.9233,33.6125
	c-22.6775,26.3254-4.8799,67.1519-8.9241,98.1124c-7.1541,54.808-48.4216,36.2687-87.3462,43.6141
	c-30.0598,5.6766-52.947,23.1055-65.6145,51.0007C2374.9182,1970.2172,2398.0283,2035.5726,2449.7205,2060.7295z"/>
<path fill="none" stroke="#000000" stroke-miterlimit="10" d="M2562.542,1916.5876c30.5833-14.4091,48.0354-44.8151,49.3494-77.4131
	c1.01-25.0524-14.0137-44.3552,11.4983-67.8843c20.144-18.5798,74.5835-9.4425,93.5002,3.8616
	c44.2463,31.1061-8.2959,53.1793-27.1631,72.3871c-10.6021,10.7981-18.0752,25.2158-21.468,39.8348
	c-7.8186,33.6893,6.1997,61.7347,31.793,83.0529c19.7354,16.4377,55.0393,37.7559,42.9185,69.5121
	c-17.8071,46.6575-61.2983,32.4209-82.3799,6.9637c-0.2275-0.2733-23.292-37.0781-35.0815-45.884
	c-11.9985-8.9646-28.4998-15.2689-43.4504-16.7786c-17.1428-1.7329-30.1829,4.5118-45.2651,11.3979
	c-34.1855,15.6145-87.7056,21.7002-86.4414-34.822C2451.4761,1910.1016,2529.7029,1932.0566,2562.542,1916.5876z"/>
<path fill="none" stroke="#000000" stroke-miterlimit="10" d="M3442.875,222.2367c-27.8816-6.1494-58.1821,3.9163-83.8582,14.1953
	c-27.563,11.0345-48.1709,19.9082-72.0728-3.4342c-8.0688-7.8777-17.5562-17.6248-23.6785-23.2148
	c-53.4521-48.8038-130.4419-14.3591-160.7068,26.0803c-28.9146,38.6338-35.354,94.6739,3.0784,127.6039
	c35.6052,30.5057,88.0879,28.3045,73.3152,90.8259c-6.6448,28.127-23.624,52.0738-15.0002,82.5251
	c13.7183,48.4581,88.2471,66.788,129.8101,47.3759c26.4128-12.3351,42.8096-38.5565,54.0618-64.4865
	c14.4817-33.3712,4.1165-60.9752,9.9651-93.7731c7.9104-44.3464,57.7188-12.5307,87.752-24.2564
	c23.6375-9.2285,38.4836-33.8763,47.5974-56.3724C3512.0696,298.5717,3499.2107,234.6628,3442.875,222.2367z"/>
<path fill="none" stroke="#000000" stroke-miterlimit="10" d="M3449.1838,302.6242c7.5176,46.1339-47.0217,35.7406-56.3315,35.1497
	c-14.2224-0.905-26.5261-0.9277-40.2168,3.9889c-30.074,10.8024-52.4468,38.0834-56.5632,69.7628
	c-2.1519,16.5739,19.6392,147.8214-61.2617,114.2862c-29.719-12.3214,17.8572-83.8031,12.4128-114.5956
	c-6.6909-37.8467-36.3147-58.6918-68.376-75.5164c-21.6042-11.339-41.9172-21.5049-33.6577-49.627
	c9.9333-33.8125,51.8374-45.529,77.9226-31.0424c30.3506,16.8562,35.7224,58.719,72.6638,64.2046
	C3329.9941,324.3153,3439.1821,241.2395,3449.1838,302.6242z"/>
<path fill="none" stroke="#000000" stroke-miterlimit="10" d="M3733.8604,1889.5247c25.188,1.2008,51.3181-7.1362,70.4348-23.7924
	c27.3682-23.8422,22.0237-52.3241,37.2107-80.9513c23.1599-43.655,70.3174-9.4242,109.6145-13.7999
	c30.124-3.3568,60.9443-16.1284,80.8521-39.3112c48.604-56.595,18.3206-116.1652-42.9319-143.9596
	c-26.9995-12.2534-67.5696-1.6512-79.4863-4.0482c-31.657-6.3722-28.3184-61.6893-51.0688-81.6111
	c-17.3438-15.1869-48.3682-26.8762-71.0542-22.5234c-53.5798,10.2744-111.6028,80.1646-81.5298,131.4746
	c28.9502,49.395-21.5042,72.4414-49.6501,95.1238c-21.1174,17.0198-26.8618,47.1576-28.6819,74.1516
	C3623.5356,1840.2346,3676.2783,1886.778,3733.8604,1889.5247z"/>
<path fill="none" stroke="#000000" stroke-miterlimit="10" d="M3706.8474,1741.2809c14.1409-15.123,35.2266-22.4825,49.7319-37.6377
	c19.2351-20.0946,29.1777-46.9664,24.3059-74.7797c-2.7742-15.8464-21.0276-35.9637-16.3833-51.8829
	c9.7244-33.3392,45.4429-33.1305,57.2544-4.4939c11.6892,28.3403,13.8816,51.9056,45.0979,67.2108
	c25.6523,12.5807,69.8528-8.8743,93.8638,3.8616c27.7715,14.7275,19.0852,62.2032-5.4944,64.8867
	c-14.5461,3.5566-28.8411,2.8243-42.8818-2.1927c-15.5503-3.6844-29.5728-9.0554-45.9297-7.9551
	c-28.4224,1.9105-56.9951,20.2495-74.5879,42.3176c-24.8071,31.12-9.4937,105.1262-71.3555,84.6404
	C3680.6399,1812.0757,3682.5864,1767.2333,3706.8474,1741.2809z"/>
<path fill="none" stroke="#000000" stroke-miterlimit="10" d="M4155.7695,1887.9012c9.9243,40.994,44.8652,68.5344,0.4136,101.1962
	c-26.2446,19.2806-53.2563,22.1189-66.2744,56.2998c-22.1279,58.1096,29.0225,120.554,81.0835,140.7939
	c61.1978,23.792,85.8589-21.3772,105.5942-71.1179c26.5312-66.8699,53.689-0.96,74.7969,16.6699
	c41.8228,34.9265,92.5322,11.0386,112.2583-9.0784c39.0298-39.8027,33.0166-105.2579-8.0464-140.8807
	c-22.6963-19.6853-62.5801-15.8738-81.8022-36.0862c-24.9111-26.1987,13.5908-74.2927,3.252-107.2911
	c-16.8374-53.7385-91.2529-90.7899-143.7231-78.7772C4176.1958,1772.7007,4142.1104,1831.5015,4155.7695,1887.9012z"/>
<path fill="none" stroke="#000000" stroke-miterlimit="10" d="M4236.8164,1828.0312c33.5264-21.7183,84.6045,7.5183,76.1538,48.2219
	c-3.8848,18.712-12.4087,31.0472-11.0439,51.2827c2.0884,30.9379,20.2314,59.2969,46.7246,75.3481
	c14.0317,8.501,29.0005,9.7424,43.665,15.6826c12.8892,5.2214,65.3188,23.5742,41.7812,61.4529
	c-30.8057,49.5771-60.8799-8.6648-73.5244-19.6443c-25.248-21.9277-39.2661-40.1438-71.1499-34.4901
	c-33.8618,6.0035-47.3252,28.2723-59.9419,58.0643c-6.7358,15.905-6.2041,40.2849-26.1943,46.2383
	c-20.0947,5.9861-47.1987-12.2712-53.3892-26.4395c-16.3096-37.3372,17.4346-50.7554,45.5254-66.183
	c30.9102-16.9749,55.2119-43.728,50.7598-81.1292C4240.9282,1912.3302,4185.6934,1861.1523,4236.8164,1828.0312z"/>
<path fill="none" stroke="#000000" stroke-miterlimit="10" d="M3242.9883,1727.1444
	c-18.1521,24.5701-18.1152,49.6226-14.8225,78.8864c0.4133,3.6935,1.7964,6.6318,2.761,9.5331
	c12.9895,39.1204,44.6057,69.4536,89.3381,65.3328c28.6553-2.6379,54.7761-18.5667,71.1187-42.286
	c11.9473-17.3428,11.584-38.7383,18.3481-44.5601c14.2173-12.2488,41.262,9.8151,53.343,15.0503
	c50.5596,21.9048,110.0747,5.4398,124.7249-53.2433c13.9817-55.9994-28.7012-107.4777-81.0337-121.1543
	c-11.9216-3.116-24.2703-3.7799-36.5186-3.8527c-30.6377-0.1821-36.4241-0.8094-31.739-34.1941
	c3.593-25.5934,7.4819-47.6483-5.8997-72.3373c-23.5007-43.3639-103.625-56.5588-144.6736-31.2836
	c-47.1433,29.0232-44.519,101.0829-23.1914,144.5692c11.5024,23.4601,27.3079,29.4644,5.7485,61.7986
	C3263.6106,1709.7194,3250.6387,1716.7877,3242.9883,1727.1444z"/>
<path fill="none" stroke="#000000" stroke-miterlimit="10" d="M3335.4243,1543.3954
	c41.5183-10.2426,45.6797,19.6853,39.0166,48.4401c-6.4407,27.777-8.7466,50.4276,10.1467,74.5063
	c18.0889,23.051,42.2449,26.6671,69.8132,26.7214c22.928,0.0458,62.8213-4.4211,71.2542,26.4353
	c17.9297,65.605-59.7468,21.9094-71.1819,17.4155c-25.6982-10.1017-53.9849-13.2631-78,3.3157
	c-10.0571,6.9408-16.4507,15.6372-21.8228,26.3529c-2.8335,5.6539-4.0798,11.8756-5.3127,18.084
	c-7.1582,36.0319-43.873,48.5856-58.7283,7.491c-1.9097-5.2896-1.7139-10.0156-2.1323-14.436
	c-2.8977-30.6105,44.2415-46.1565,53.4014-78.3319c8.6147-30.2601-3.7522-51.3239-15.5823-77.6724
	C3314.9573,1596.4705,3293.0122,1553.8568,3335.4243,1543.3954z"/>
<path fill="none" stroke="#000000" stroke-miterlimit="10" d="M2862.897,1590.1893c15.5913,20.7129,27.8857,21.0499,16.8059,52.3604
	c-4.7581,13.4401-20.0129,30.9012-24.1611,67.5427c-5.9539,52.6292,10.3337,104.621,91.6904,120.1627
	c46.5793,8.9011,106.9084-6.113,122.8142-62.467c9.8335-34.8495-11.7759-56.7957-0.4277-65.3461
	c20.5867-15.5055,41.9041,24.8751,93.7783,20.7131c47.6077-3.8204,69.3894-63.668,55.2129-109.374
	c-6.9182-22.3004-22.7739-40.7172-43.8555-50.564c-28.6318-13.3768-101.8379-3.2203-130.4512-11.8483
	c-31.502-9.5015-22.9321-50.9141-47.0254-83.0708c-15.3503-20.4905-41.1033-30.9335-66.0325-33.1211
	c-48.7722-4.2847-91.4172,25.4525-95.2107,76.376C2833.8921,1540.3573,2845.9226,1567.6429,2862.897,1590.1893z"/>
<path fill="none" stroke="#000000" stroke-miterlimit="10" d="M2933.687,1497.2754c18.7849,7.5369,19.2263,37.9745,33.7439,60.9889
	c14.969,23.7239,36.7371,40.8807,53.2297,47.3938c28.595,11.2982,90.2209-7.6686,122.5232,10.6702
	c27.8726,15.8237,30.3242,50.4961-1.3279,55.7719c-26.6311,4.439-63.6726-28.0408-78.0176-28.7821
	c-25.3848-1.3192-44.5425,14.1771-49.0039,39.3889c-3.7849,21.391,16.8599,36.032,12.03,60.8253
	c-7.7544,39.807-53.1155,34.5446-71.9597,29.5686c-20.8862-5.5126-40.8394-32.2976-32.7529-70.2811
	c3.1067-14.5912,25.3936-57.7004,27.1716-67.9432c7.6233-43.8961-29.5867-58.6371-45.6467-93.3732
	C2891.6472,1515.5051,2903.0269,1484.9763,2933.687,1497.2754z"/>
<path fill="none" stroke="#000000" stroke-miterlimit="10" d="M3802.5264,677.4127c-1.9507-32.7119-17.7471-62.1895-39.4697-86.1093
	c-27.6223-30.4147-70.104-59.474-56.8318-105.5852c18.0837-62.8129-4.1848-106.0221-50.1819-120.0401
	c-30.6426-9.3376-80.7336-15.6008-108.7327,34.431c-21.1958,37.8695,0.3501,69.2304-23.52,86.1641
	c-22.3503,15.8557-41.9265-5.4581-71.1492-5.4899c-23.5835-0.0229-44.8967,16.8654-58.4282,36.287
	c-27.4856,39.457-26.0535,100.6958,1.9148,139.5753c26.7354,37.1691,86.1321,50.2364,126.4531,32.0933
	c25.0071-11.2526,30.7661-51.0961,68.0667-36.4321c25.634,10.0791-7.7605,59.0512,16.9468,97.1028
	C3663.3931,835.3452,3808.03,769.7714,3802.5264,677.4127z"/>
<path fill="none" stroke="#000000" stroke-miterlimit="10" d="M3700.9622,725.3114c-42.4868,7.2545-39.4758-31.156-41.7407-59.6561
	c-2.5691-32.2795-18.2981-64.1408-49.3816-77.6447c-32.4392-14.0954-58.2324-0.5366-82.3159,20.5949
	c-23.9885,21.0497-64.3594,40.312-85.2451,4.0255c-18.6758-32.4478,2.7385-83.6077,44.1638-76.4941
	c33.2578,5.7126,59.011,26.335,85.5005-9.306c9.8149-13.2039,10.3245-62.5396,11.5757-70.2584
	c3.4336-21.227,25.1113-39.3251,45.6653-34.8493c51.9875,11.3253,23.6111,66.5602,18.6931,81.0381
	c-5.6616,16.6787-6.217,31.6703-0.7593,48.4081c13.4683,41.317,56.8818,58.0869,79.7007,92.7725
	C3747.1919,674.9247,3743.4622,718.0566,3700.9622,725.3114z"/>
<path fill="none" stroke="#000000" stroke-miterlimit="10" d="M3894.1663,1339.8431c0.1917-1.1143,0.4958-2.1559,0.5828-3.3384
	c5.822-77.8542,83.8538-34.9768,127.6584-30.6151c26.8127,2.6697,52.9888-1.6193,74.8157-18.2754
	c45.1284-34.4309,41.7588-109.4788,8.833-151.3508c-20.063-25.5161-47.2668-35.8318-79.2598-36.1638
	c-10.8296-0.1138-36.4094,5.8491-46.4021,1.0735c-21.8962-10.4657-14.7136-49.868-21.1409-68.9347
	c-20.7041-61.4072-98.1172-66.9743-149.2627-42.2314c-49.1858,23.7969-69.2078,84.9951-42.1091,132.9437
	c13.7998,24.4247,43.2686,34.6812,13.4355,66.9698c-8.8875,9.62-28.7451,15.3053-39.5474,23.3512
	c-22.9331,17.079-42.2407,37.9194-48.1169,66.4058C3665.7805,1414.7455,3889.9597,1488.3286,3894.1663,1339.8431z"/>
<path fill="none" stroke="#000000" stroke-miterlimit="10" d="M3757.6797,1299.7723c2.2883-31.3611,23.3149-39.9121,49.1816-54.5168
	c29.1594-16.465,50.4451-37.9467,51.8689-73.4194c1.4924-37.1511-56.0938-80.7924-37.8506-112.7899
	c6.7407-11.8167,36.9822-23.897,50.6003-21.2406c44.8284,8.7465,27.4722,31.097,32.9617,53.0975
	c4.189,16.797,5.6128,30.9379,17.3611,44.8785c20.8633,24.7656,53.5522,27.454,83.6936,26.6396
	c14.0645-0.3777,22.8108-2.2195,36.5239,3.5931c15.1953,6.4404,37.8284,31.1287,27.0354,52.2833
	c-9.907,19.408-50.0503,23.9924-68.4209,20.3219c-9.3374-1.8645-18.2522-6.4176-27.5854-8.5601
	c-71.0728-16.3239-128.5271,30.3831-138.2515,98.2489c-0.9053,2.911-1.5554,6.0176-1.574,9.538
	c-0.1133,21.1906-22.2646,24.4745-36.8372,21.7229C3766.5811,1353.9524,3755.8291,1325.1614,3757.6797,1299.7723z"/>
<path fill="none" stroke="#000000" stroke-miterlimit="10" d="M2737.6172,615.4507c23.4558,30.2375,79.4961,84.0035,141.877,57.4684
	c31.2651-13.2995,43.2957-40.4528,43.364-72.81c0.05-24.0334-16.9749-54.489,29.5098-41.3078
	c17.3569,4.9212,28.3955,37.3785,56.5454,42.6362c65.3782,12.208,97.2935-28.8547,106.04-85.5136
	c10.2109-66.1512-14.7686-108.4827-80.2192-126.5216c-23.3599-6.4357-47.6992-5.4445-65.4919-2.297
	c-18.803,3.3294-30.4006-10.1246-25.2522-34.9769c5.3577-25.8667,3.0747-48.763-13.1135-70.6542
	c-33.8987-45.8383-117.6699-56.2041-160.3748-16.8333c-21.5364,19.8582-34.8362,49.5999-32.498,77.8949
	c2.7017,32.6344,55.2629,81.7977,38.4019,109.4468c-14.6184,23.9744-35.5771,34.7358-49.0315,64.8096
	C2705.8335,564.9501,2722.4165,595.8562,2737.6172,615.4507z"/>
<path fill="none" stroke="#000000" stroke-miterlimit="10" d="M2817.7227,372.5731c-5.7083-11.2798-16.5605-30.0692-13.9045-42.8772
	c4.6074-22.2097,31.9658-33.8034,51.5879-25.3979c35.3179,15.1233,21.7681,36.3368,16.7283,63.1581
	c-5.4668,29.114,7.7417,64.3229,35.8228,77.0855c38.0972,17.3067,84.5132-8.4464,123.0964,10.1292
	c36.0962,17.3792,34.4988,95.7881-17.7798,81.2242c-20.3945-5.6812-36.5779-28.9231-58.446-35.6771
	c-32.4614-10.0338-67.0791-0.8097-85.0364,29.5236c-10.4019,17.5748-8.9509,33.4166-9.7017,52.0286
	c-1.0325,25.598-29.7368,45.1699-60.6794,18.7664c-38.1421-32.5436-21.095-72.8691,4.6074-93.2276
	c13.4585-10.6656,27.3718-20.8586,35.4497-36.5505C2859.5083,431.8155,2834.6516,406.04,2817.7227,372.5731z"/>
<path fill="none" stroke="#000000" stroke-miterlimit="10" d="M2639.4907,2432.8384c13.7678,25.5986,44.606,46.5979,74.3926,47.6533
	c24.6843,0.8779,38.9705-13.7317,60.4521-20.1172c53.3748-15.8691,49.2864,24.6655,86.3145,45.3381
	c20.2085,11.2798,45.083,10.9067,67.1292,6.7725c50.5459-9.4832,89.207-49.4404,83.981-103.1111
	c-2.7478-28.2046-18.3303-54.6443-38.8796-73.6243c-10.1013-9.3333-26.9124-16.1875-35.9451-26.1443
	c-28.564-31.502-3.7251-42.8044,2.415-70.6721c25.8069-117.1289-180.8376-139.1475-201.0415-22.405
	c-5.7629,33.2935,16.4058,48.2534,6.4038,68.4844c-7.4915,15.1509-43.2324-6.1902-79.3459,19.2668
	C2629.3711,2329.6458,2624.6228,2405.1936,2639.4907,2432.8384z"/>
<path fill="none" stroke="#000000" stroke-miterlimit="10" d="M2732.332,2343.832c6.2131,0.5273,36.8101,1.8967,46.1338-2.0059
	c22.0095-9.2063,30.4419-29.637,30.8059-52.4473c0.3362-21.2043-16.1333-53.2659,2.4419-71.709
	c20.5544-20.4038,44.3967-20.5405,64.5188-2.7246c22.551,19.9673-21.4316,77.3174-10.4561,102.8975
	c11.5391,26.8896,34.1624,37.7605,55.8494,54.7852c28.9412,22.719,43.3958,84.8767-13.1721,81.0469
	c-22.9827-1.5557-32.8345-24.6296-45.9976-38.7019c-16.6743-17.8345-38.6245-28.4275-63.4316-28.2864
	c-20.5315,0.1184-69.1487,38.1379-90.1074,25.3662C2680.9768,2395.033,2685.0112,2339.825,2732.332,2343.832z"/>
<path fill="none" stroke="#000000" stroke-miterlimit="10" d="M3832.9597,748.0623
	c-20.9041,23.6972-21.3359,56.9272-13.0947,86.0867c10.9746,38.8383,28.6267,86.3138,97.2209,98.8267
	c29.2322,5.335,53.825-8.5283,67.6658-34.4447c14.9043-27.9041,15.4229-81.9794,40.1299-91.5172
	c22.3555-8.628,79.26,25.7299,105.7805,22.2141c32.4761-4.3028,60.6157-25.4799,74.625-54.8531
	c21.3267-44.7191,5.0483-109.7291-43.2964-130.069c-34.4131-14.4773-68.4697,5.558-103.2656-1.9238
	c-30.9834-6.6588-35.095-23.3648-35.8818-58.2551c-0.2134-9.4834-4.7983-36.6688-8.9648-45.3382
	c-21.3174-44.3237-135.1863-45.6109-159.5962-6.1222c-33.4946,54.171,21.0315,99.7453,31.7427,146.9572
	C3896.0544,723.833,3859.9265,717.4928,3832.9597,748.0623z"/>
<path fill="none" stroke="#000000" stroke-miterlimit="10" d="M3958.6033,575.2842c20.5896,9.9746,9.7783,31.743,11.9116,56.0765
	c2.7661,31.52,33.3352,58.3552,63.9553,64.4865c37.8416,7.5775,117.042-19.2122,114.3359,37.6329
	c-2.9976,63.0126-98.6814,6.6315-137.9419,16.6015c-28.5645,7.2544-40.6904,29.5869-49.2866,55.4036
	c-9.0967,27.322-15.823,68.8664-50.1084,58.1506c-29.3057-9.156-38.9165-47.0481-31.4573-74.2792
	c10.4387-38.1016,51.8611-38.5563,66.5969-69.6125c13.1313-27.6675-2.9744-51.5236-18.2073-75.5208
	c-7.2634-11.4484-22.4556-27.2536-21.5093-41.3718C3908.5806,577.7538,3937.2991,564.9592,3958.6033,575.2842z"/>
</svg>
